<mxfile host="Electron" modified="2024-02-15T08:50:58.444Z" agent="Mozilla/5.0 (Windows NT 10.0; Win64; x64) AppleWebKit/537.36 (KHTML, like Gecko) draw.io/21.2.8 Chrome/112.0.5615.165 Electron/24.2.0 Safari/537.36" etag="8O4O8pYowKPvbVSGpkdP" version="21.2.8" type="device">
  <diagram name="Page-1" id="2XWkQP5S-hDbL94sL5Vg">
    <mxGraphModel dx="2058" dy="1180" grid="1" gridSize="10" guides="1" tooltips="1" connect="1" arrows="1" fold="1" page="1" pageScale="1" pageWidth="3300" pageHeight="4681" background="#999999" math="0" shadow="0">
      <root>
        <mxCell id="0" />
        <mxCell id="1" parent="0" />
        <mxCell id="APLwThIm-aDqV8bCMrbt-1" value="TextArea and ScrollView" style="rounded=0;whiteSpace=wrap;html=1;fontSize=25;fillColor=#dae8fc;strokeColor=#6c8ebf;" parent="1" vertex="1">
          <mxGeometry x="1323" y="140" width="657" height="60" as="geometry" />
        </mxCell>
        <mxCell id="1ScYCOMUNJynEpQwGXpU-1" value="" style="shape=image;verticalLabelPosition=bottom;labelBackgroundColor=default;verticalAlign=top;aspect=fixed;imageAspect=0;image=data:image/png,iVBORw0KGgoAAAANSUhEUgAAAo0AAAFnCAYAAADDmnM0AAAAAXNSR0IArs4c6QAAAARnQU1BAACxjwv8YQUAAAAJcEhZcwAADsMAAA7DAcdvqGQAAKP0SURBVHhe7N0HYBPl+wfwb5LuvUuBQmlRZCpDQTYqSwVBBRVEFP8qPyeiouJeP3BPHCioKChDBBWFn4goSwXZs4OWLkoZXXQ3ef53yaVN0ktylwEtPB8NbS6X99573pEnl8tV07lLV4ItIsgsFBcrp2pla64/k3nPWWiVZtQRuM8y1nRppJ/NwlmpbLOK0HnBrRbRKH+2aVXr9U2LGpehEZY1ThobJYwyyaJsUtncnYU9cnGT517sz3fNqEW583mP8nmeqcbBbWrOSou4vNFzq/8Y98YmKbRNHuXWETUkjTKJINlmi6qSRTdeXdx4qqvOwibPgvMjsOdHWzLGmrLGL7dnwBnf6FnZy2bF5Qi5FVplTzaupTJ5NCWNNsmg42RR+k34YbNWM+fi3rgRhHMrft5wFiJ0njQK9z12tli/RDVxZ6WyzSpCZ5xb0XH5yedOmxj3pOEfI9Nd6320TB4tH9d07tzFIkU05o9WGhJI6afww2YVO5StJcvFp7qxxbPkzO5o84vP+aIZtQx3oqbHeq5nsjhIjpyV6Li80ebVlk1vN00FG/9t+MdIPGfRkmXiKDKe09hJSBpNd20SRtuji6b/Jbb3mwo3auTiU5teDBw58/FxR/OK7dnAEWLnE+sXNNaYyxE6809sVmxyKZWaXowsk8GGXy3vm34XNUocTUmjdcJoe3Sx4a5lIimyvmfFwUPOuPFU11kGQIWzUtezwsU9PU8CdP70A8aYEg0vs2eQyxs9K7U9485OeFx7svc22fCg8TcpQWyUHBr/afyYkDR2tsgR7R1dtDkK2ei+HKcr2OfiU93YohvOl/08XzSj6DazjsD91jsapvlz3FnZ0fMmumecy5F1q0nOfHs2xf00PiolhCJzUij9MP9jtV79Oh07dTbN5TYJo2Ui6ePri+DgIPj5+sHP3w86nc6rrwCWNWEymlV4znxlufcwxs4200vtmXZ2tuqSZlTVs0FK4bxDKFqv16O6uho1NbWoqKhAXW2tsNy0TXOCWP+vtFxkShodJIyhoaEIjwjHyaIKVFbXoqq6DrV1emkFxph9DQPtrLCXPdurFmfbrKlxNoTU9nFVmvOAaIp191SdvLFv3oyXsrK9+2rRuA6+Pj4I8PcVbn6IiQpDcXEJykpLhYqYamIvcdR07NipPkcUCzbfET+zjomJEZbocPR4KWpqOVFkTB3TIPM6b853jJ1tzoaRvf7vkeHXHAdXU62zJ+rlrX3zZsyUle3dVwvHdfDz9UGL2Cj46IDCwuPSUqFOxkqZamb6VQNtQ1HmhFH8SQgLDRV+88GR/CJOGBmzIg4fuZuHiOPQ8uaIs8fd4aXdY4ydTWdjQHtzovKE83uCq6mtQ3Z+IcQPkcVPl01fdGnICev/FRZoTfcsE0bTYUvxI+mjx0uMDzPGlPDSZCyOTdO4Zez846zv2xtyPGYYU6Xg+ClEhIcbc0DLnNByMAlJo7BQumN6EAgOCTaew8hHGNn5x5z42XslUpIUOnq+G8Tx2TB2rX/3BvP2bLfL2JmkdMh5hdcKPst4QFvjeIjEI44nikoRFBxkvG/OCesTSOFfrSlWYjbZ8Kj4LWnxSy+MnV9sXyDE+5bLzsALiDQMHRLXUbIeY+cac99XOgY8Mk7OtcTRI0E5h3A8LFVV1xhzQHPGaP6o2hwm0zmN0h1xJfFX8bI64rekGTs32CZ/arn7fCfEQWe+eZK52l6uPmNeo6bf2lvXI+OKBxA7P1RV18Lf3980bOoPJkrDSLiv6dDhInM+KT1OSGqbhH3pBcal9oSFBsLXx3RKpBq1dQaUllVK9xg7EywnfGkQyDpLLwyOquQO293x1nYY8yZzP5brv54Y2uLzFA395jKAmlo9PVkfT+/bmYiVsm0o6oKquL5vndq3QdaRLOE3Tf03qOt/XigkjeKv5o+nxZ9JSW2xP/2Y8b49b7/+ElLap0j35Jn/+HVewYn6hLW89CSmP/YMtFqdaQFjXmcejnKDyPND1WWuj3HHxF30VtmMNXUeG+LNaRBZ1vVsTwCe3Lan98PbcVFevmdfidzbr47tE5GVdcQiYTTVTvxR/+1p0w/lG4oID0Xniy5weOvUob3xNnRQHwwbbLrFxkQL2zFIpTB2Joj9Wq5ve3aYus1b1XFv/mCs+fLYmGpug0jccfONmb303JPITtuFvMN7pds+q1t22m5hnZnS2u7yXJ/ZtO5n9O19qXSvMfGxjb+tku55ivnTZ+G3+l+EHmU80igsEBeZH1BypHHBvPfQunUKVmxIg0ZLpptOvBlw9cXt0SI+HKdPlxvXDQ4OxnebMo2/twutwK23T4VO52u8b2vjuh/RLqmNdK/B9Tfdgb+3bpfuuW7vv39g6787ccfdD0lL2LnHcqKUOrusJjihOqouY0w5jw3vc2FQns198NS23S9HTBiHXn0Djh4z5zfWZUZFRuLPtT+hzQXdpCWuUl9XR91VTArff+c1PDBtBjb/vVVaaiL/mHuxMh1pNH88baqZ+FP8Tf1JiRLx6RqNDpklp5FVVoYjFaXIqS5Bbm0xamsNxqOJYipqSkdNdH7OL+HT/4pRaJV8MT5f8A2279ht/F28qU0YxeSw96U9pHsm4v3iklJc2vMSaQk79zXBxJAxxtgZp9PpjAljaWmZ7C3rSLZxnbNBzJTMN1tiMigmhWJyaHnE0VEy6S0uJ416g+kj5thof2j86lBSV4rjVSdxrNL0J2g0NnseEFmFoJgK6d7ZMfWuyVj/5yZj4njn7ROkpezcJyaOcjfGWJPjqeEp9+p7XuJAnAtsE8ezkTCKLC7uLXUs8SNqBX3MvMqBY7nILD6K4roiVKIMNZrTxuUkDXrTAU0gOOI0gkJMj7lCPEqYd1g8F8F0E++LiZ/4u9mP331lvIlHGSMjI7B88efGj7vNxCOMP676nzFxHDNqpLQUxnLE9cSb+FzRy88/Ub8t8zKRuI7cctaUKOjAZ5u9KnrqBZMx1iymAnZuMU3hpv88zTJx9GrCKI4b49gR/jGfzyj8Lv7mxsfTJpVCkugbWAvfgFr4+NfAV7gZCaVbBu2i2ES0j0iW7qknJoDmj6rF8xvffPUFzPtikfFjbDFRFBM/MVEcdcMkdOk5CEVFxcb1xI+7ReLj4hFG8WPup5+fjR7drc9ZEM+jFMsSnyuuO3hgv/rtrfjxF3w+913jeuaPz8VbZla2Mbk8/5iGhWe5U565PpZlmDt6E9QwBu1X03Z3GDvfNNn+35wGp9wE45n65x3ereh2PmkuvcIdLieNZsZkUbj5+os3i6RRiJ5ld20fmWK8uUJM4kTmI3xiAmn+soyYAIrJ4ovPPl6fIMoRjyyKRxjNxPMlLRM+MQEUk1BR/769jeWbt3fHbbfggvamhFesi3m5beJ5/vHUEDGX44nyPFmWF9hLEhlj1rw1VpyV6/DxJjqvKOa5+rdK7qboxpQRW8Z8s8fyI2nLj6rPJLeTRlPCaEoW/cSffqak0fRNbPPoI9TU1qKyskq6r56Y1JmP8JlvaogJnpj8WSZ84tFEe/63dr3VtsSEVEwYH37gnvplYuJ5fvPUrN7QTzyjGU3sclU1Dx1PhYOx5sTTfd+2LGfTQ6PHzQua0bxST6yz5Y15k2VXU9OFlbSM7TmMtuc4nimuJ43CXlZXV6J3TAp6RV6AHmEX4pLgjugW2Nm43LSKKRRi/mgwGOq/PKOWeARQPPJnPuJoSTxaKH4Ubf6Y2kz8KLpL54uMv4vryCWdYpm237AWbdz8N4ZdNVi6Z00s1+z8PdIoDgc1Q0IJR+WZJzzzzZan6+IFciFrprvCWLMjN/7MzI85HHu2g9Xhyqxe04qTXq83XlbHnhYt4o3ruMNpV3KBvS+9nI3E0eWkUcz/OnZIxD1DrsI9g4bhrgEj8X8DRuPOftfhog6tERQUjLi4WERFR8HXz9eYNGq1cq+Syjz74qvGj6DNRwrFBFFMBsWjh+J5jOaPqc2JY1r6YeP64hdXxCOKlh9Nm4lHCsVvVNsSk1TxSKN5W+JN3Ja4PCI8rH7Z+XOk0Zysudp+ls+3vCkht55cGV6cnMyzgKubkHue3G55cRcYYzJsx9x5Mwab447KTZrqfPn1t/hzrfhlVvmLe/+z4VfjOk2JeH3E1/77fKOE0cycOL4+6wVpiXdpLuzQQbqmN5m+JCP8k5SUhP0Zji/uPe2Bu9D9EvtH2rRarfEmZu2Wf2lm9669eP3tOdDqfKQlrOlzNzlzNtgdlalkohCf7/6EIkuuamo2pWbXXAktY0w5Z2NO0dhu7gP1TNbf09vyZHlnIg72t6HmZURMHC3zKOfc27eOKdLFvYVKGj8xFi/sbayw8PPCC4WkUdiAOWEUf7RTkDQaL95tMF3AWw2xAhohmdRo3D6dkp0x5u5tr60dPW5+TCnLMtQ+1wtsd8md3WGMnV2249el8d3cB/WZrL8nt+Xpep+JONBZeBVzf7/EpDFTSBqNdTcmjGLmZvrd5cxNTPrEo4XinwNUcxOfwwljUyN2B8ubLbET2uuIluvbPl+uLJGjTm0uw95zzxC5XZarknk9ezfGWNMgN34tlymacpr7oD6T9ecJ8Cy/inkFZ2/nPXszqfnmiL3HHT3XPJG4M6GIz/XihCRXtLNQMMbOU47mO+YZXpzvmSqcNDIHPD1Q3S1PfP5ZmDyc5b+MsabNazldc0oWecJi7uOkkdkwJ2ZKJhh761iWYXlzhb3ne3GyFou2vDHWpHCn9ChV49xyRW6HM8PV1w7mDZw0npfMs6R4s0zKHA1OexOk7fMdlWFLbl1Xy2LsXGU5Xu2NQ6aYo+lF0bQj1w5On3Se4XhozloMvDtHcNJ43nGlQ5mf443OaJ6lzTcleMJm5wOxn3tjzJ1nLENoO1VY3rf3+znB0Q55up+dc8FzyBw96wieuzHgpJGdI87QIBU3Y74xxpoPr41ZngyYpXO7P2iNuyf9Y9pV8d9ze6fPffLvfRpT2s7m9ZpKv7Cth5J99QAeFuyMstfhuCOqIobLUcicPc7YecaYDUrX7TYODovf+UjjOcc2eTInVOab2PTmmxqO1rfdxjlIbbgY8wjbjmd7/xwfd01ec5gYnNVRfLyp7oc368VjxhWaCy7sIKSQYhZp/CEg41+E+fXXX40rMMYYY4yx88NVQ4ciK1P8M4LiX4MR02vxH9PvfKSRMcYYY4w5xUkjY4wxxhhzipNGxhgznqDjKnee29Sdy/vGGFOLk0bGmpGiv77E66+9htdsbm8u2YUKaR13VO5agjffWYpdZdICj6vAxmeH4po3dqBWWnL2VeHP6d0x4LV9MEhLGjirr+Vzm+K+uSfr4xHoPOVHlJyD+8YYU09IGqV3ktLbSfHLMPzOkrGmyVB+HDk5OcItDWs++gS/Hs5Fbm4u8k9VqRq3ZZtfx423fYw0qydVYee3b+P9157Hh1tKpWWeFoik/tdhVO9W8JWWNA0GGKRYWMdGSX3Nz/Xsvsm3kXLuPt/EgDpjJm29b54pmzHWVJmHdkNOaPqFjzQy1oxEX/ko3nv/fbz/xh242Mcfve56E++99x7enNobwVSFU9mHkXWi0nTErLYSpytqTL+L6qT7dRUoO34AOw6VQl9VjgrzoaOyjfhyOWHYmCj8vuA3nJQWiww15SirqkNt6TEcK60zLbTdnkRfcQLZmdk4XqGXlljSoOWg2zGpd6x0X1i/vBBHMo8I6zc+zidyXJ5Qt2pT3erKjuJIzilUGYsxoKIwE4ePnob5WXphvUqLw2Ti8yzvGzWKTeP62me9rrFelXWm/cvKQ4nttuzEz8heG7nbxpbsbd9QiZPC8uxTp1FVbY6exb7ZrVstyo5mIiP7BCybSrbvMMaaJU4aGWvGxEsgiAz5KzC1RzK6DR2FYV3aoudDa3Dy5I+Y0qEnZv5dKaxxGn8+NRiDZ/6JnF8exODblyBv3xu4sl0PPPBLkbGMU+u+wP/ibsGMxyag9R+f4+ejxsWCKmx64nJcNWUy+l3YFYMe+Rmn5LYnrHn401FIadcTI64bhm6t2uPmRTk2R0DFsvrgqrcPCMursff9a5DSvi9GjboSFw96Hv/a5BSKynvyclw5cSIG9r4Kw/uk4MJRL+CNe/vhkoFXY0inVuj+6HqU4hgWjb8Yk74rlJ53HIsndMP4b+p30qioUWwKLOrrjOW+SfW6YzIGXTIII4d0Q+uLJmP5MdOasu1lesiocT2KPNLGZva2r8/+Frd1SkSnK0ZjZK+euO9n83kKDft2SrZuP+D+y5JwweXX4rorOqN1++swZ1+V9DzrvlNsKpAx1gxx0shYs1eIZQ9Nx64bfkLaoX1IPfAFuv/4OD44NhZv/rc9vps5D/u3v4PHf+6B/z5/FdqO+gxbv7kZrbrMwPqjhzBvdKRQRgFWL/gbF0y6Du3bjcZt3XbgixWZFolSDQ5nXYQ5mYU4MLc31sptb1cdAno+hT9zjmD/7oPY+VFPbPr4e2RJJTRS+Rc+ficXt/2yH7v3piP3zyfQRSc9JlFUHlXgcNkQfL13Hw7u+RKDd87C/IDZ+PfgARz69X5g8ef4s0Rczybts70viGwUmwjpERcI9UrNvQQf7z+A/Ye34tW2/8MHy8Xa22kvIX5mjetR64E2NrO3/Xx89+gM7Bn7IzLS92Jf+lrcEZKPSvM7E0njutVg6YMPYMvQJUjN2oe96Ufw+90n8MqD83HYGGLLvjMKbkSUMXaWcdLIWHN3egf+t42g3fYKbr3hBtzwf/OQ5VuEA+llSJz4Nh4PnIubbl+BS974L4ZJr9g+vj6mXySUtQLzt6bgisTD+PXX/Yjs3wWpXy7FwfpPJ33Q+ooRuCRQ+LV8p53tlSIhJQT/vHU/xg/tgyuf/B0lFeWobPTZqySwM4ZfUYWPbroeTyz8F6d8guBvnZ8oK08TiJTBfZEkzmaRF6FLqxboO7wnQoW7AW06IVl7CqfEg14K2camwTF8c/sl6Ny5s3DrgoFP/eH4y0dCvS4cOQwdxZMANS3RrUccKk6VQG+3vazPI7WqhwfauJ69svb9hbV/h+O6Wy5DiLieNhH9r+qIQJnk2rpuu7B2WxzG3XY5wowLAtD1huvQ+uBG7BKTdcu+Y5OAMsaaF04aGWvuyACDPhy9b70fU6dONd6e/OAzPNTdTxjhAQiP8EF5GRAaYu/rGQYc/O5rpAWdxs+zX8DLL7+Mt1aXIujwV1i4s8a0CmkREBoE44FAe9vrmoZXR4zEe8UDMO29JVj1wTjEG+xljKIYjJq7E/9+NBwn54xChwEvYpv4KatZ7R6F5Wmg1VkeotTBx0ea2jRaaOvzFILe/G0X4XdD/e9KxeHGD9bhjz/+EG7rsfKpfgiSHpGngc7HR/hXpBV+l+roqL3scbuNLdgrq4sB1Xpf+PmaA0aorbE4X9Ie0kOvr0VNXUM8xb8godEKsRfvWPYdxlizxkkjY81daGdcflEBNu4PQ7+hQzF06FXo2yYW0S2CkfPVvXjmxN1Y+mFPrPzPC9hUbnqKRkyyqqtQI77O1+zCNwuOoP/slVJCJN5+wfs31OGHb/5ufDTN3vaCsrE9Jxk33HUj+naMQcHmv1Hg6MhSVT4yC7Roc8UD+PTnT3BN/ir8nmORyJUeVFeeQ0GIT9AhfWeacX/oxGas3loEosblWcXGiga+IVGIiYkx3iKD7B2RdMJuexmP79Wzqoe7bWzJXlkp3dEzOQc/Lt8D44HZmgP48fs9jT6eFlnX7WJc0eM4vluwBaYzIKuw5/sfcKz7UPSS+Sy6+ngeTkjvRRhjzYvW+MmD8I9xXjHdMf7PGGvqzC/mbTDpzZmImTsEicld0f2iRCTf8BVysj7DPU8V4s4370TPkS/ilYt/xLSXNuC08IygLkKicPJ1DL2wF+56ay6+PXUVJg6JNhVnFIb+E4ahYsnn+EP8iNGK/PZyowZjwrA8PHt5J3S9sBseS4tDvMxHm/X0+/BqvxZo3fESdO0+FTuGz8CE9hYJSrTK8hwKRf87b0XQpyPRvkNnXDRwHmqERFSjMZfXsF3L2PznB+svkMhrnFQ5Zid+0qNm1vUIcauN//PDKVOhRna2r0nBlDcehO7tAUi6UIhRh9uwtXVXhMjE3LrsANz83lvosWoM2iV1Rtf2SRi6sANe/2AiWknr16vZjpev7IRr39nv/AgmY+zsMA554R/z2Bd/mv6Hpv0FFwoZY0PSKP7XLqkd1q79VVzCGGuSDKipKIfeLxSB5gNe+nIU5hzFaf9YtG4RDt+6CpTr/RAcIH1EWluB07W+CAryNX7EQNVFOHqiDmFRQcJM4N+wnpmhFpWV1cJDIfAzlKMSgQj2s/hwwmZ7fsYn1+F0QQ5O6FqgbSRQUSdsz6Zc8RIsVQhCkPAEqipGfoGQmEW0RMsIf5n0S1154rRWV1WBWp9gU1yoFlWVddAFBMJXqLqh8gRyCqoQ1rIVQqkctboQBPoKy8XL72iChP0zlWyOTXiLWAQK+9lQfmOWz7Wsi3W9TPW0iqFs/KxZ1iNYJyxwsY3rn2/JzvbF5+QdLYN/XCtE6ypRIexDiL+20f40KpuqUZwntJUmBm1aRtSXZ7vf+tPFqAiIQKiLB2oZY9511VVDkZmVKcwpwiDWGP81nY8s/s5JI2OMMcYYEzlKGi0OGzDGGGOMMSaPk0bGGGOMMeYUJ42MMcYYY8wpThoZY4wxxphTnDQyxhhjjDGnrJJG0zeojb8yxhhjjLHzkZALWqaDpt+JjzQyxhhjjDHnOGlkjDHGGGNOcdLIGGOMMcac4qSRMcYYY4w5xUkjY4wxxhhzipNGxhhjjDHmlJA0Uv1Xqa2/YM0YY4wxxs439XkhWeSIwv98pJExxhhjjDnFSSNjjDHGGHOKk0bGGGOMMeYUJ42MMcYYY8wpThoZY4wxxphTnDQyxhhjjDGnOGlkjDHGGGNOaaUL8IiX4pEuw2P6jzHGGGOMnV9MOaAxIWzIBqXf+UgjY4wxxhhzipNGxhhjjDHmFCeNjDHGGGPMKU4aGWOMMcaYU5w0MsYYY4wxpzhpZIwxxhhjTmmNX6c2Xm9H+mq16VfGGGOMMXYeEtPC+nRQuGP+nY80MsYYY4wxpzhpZIwxxhhjTnHSyBhjjDHGnOKkkTHGGGOMOcVJI2OMMcYYc4qTRsYYY4wx5pQxaTR9lVr8V/padf33rBljjDHG2HmjPgcUfrG43I54n480MsYYY4wxpzhpZIwxxhhjTnHSyBhjjDHGnOKkkTHGGGOMOcVJI2OMMcYYc4qTRsYYY4wx5hQnjYwxxhhj54iSkhK3bo4ISaN0BR6+NiNjjDHGGGtEvGYjH2lkjDHGGGMKcNLIGGOMMcac4qSRMcYYY4w5xUkjY4wxxhhzipNGxhhjjDHmFCeNjDHGGGPMKa3pUjtk/iHcjP+I9xhjjDHG2HlFyAHFXND0v4n0Ox9pZIwxxhgT0iKDoT5NYjJcShrJUIfa2lontzroz1bsDfqzu30FKlJX4PUX5uD3vDppSRNgqEFpYS4yDh5AWvYxlFQ7CCAZUCe2c52+4Z2IQ8JgrDP1C6sxKZVT56WBmrdoEi7ueBVe2lIuLWFKmWI3FC//XSEtYezMaZJzpEpq5x9P7LOn5zy58s6FtrFWibQlD2Nwu2iEBEag59ObwbOePJeSxt8e6oyw4GCEhITYvQXHXoU56XrpGWdSEX59sAvCguIw5I09qJGWNi2V2L/wJTz7/NOY9eMRnI0oWaLydKx8bgy6xIcjqkVbXNi5CzokJSA6MgE9Jr4pTAyNo1i7exb6RgYjOOwSzNh4WlpqX/WO/6JftNA34odb9QtjORExGPL2AXhj+tHUlSA3LRfFBo20hClVHzs9x46daU1rjnSVuvnHM/vs6TmvcXnnRttYKlr3BMbc9gnye07Dx1+8jls7h0iPMFsuJY3xA+/Gsy+8gOeff164PYcHrmwBvV9XTHz6Jbz0kun28syb0SnQgy82telY9vgYDJn8NbIdHZQ6/ge+XJmDsGgDtn+zBDub5NuFQPSYtgArVq7E3Ekp0ElLz4a63JW4v293jH3pf6i45A7M+noV1m/agN9/+gIv3twex5Y9imE9r8Wr/5RKz5BoDDDU6aHRp2PxJ/9DobRYXhH++PRL7Koi1NbUwgCLfiGWo69B7bnyhvVMUDoWGLPUrPpN05kjPc5uOzSXfT7X2qYIWxauRFqLW/D23Gdx2y134+FbuiFIetTKmRpDTXisupQ0dh33CJ588knp9hCuuygQGl0MLp/8GGbMmCHdpuKq1h48ZdJQjF2rf8HOwmppgRxC7pov8L/CFIy4oScC9izFQttkp4nQRnbG8NEDkRQsLTgbqvbg/clT8NHBWIz7bDv2/fohHpswAgP69MWgq2/DzPkbcGDT67gC6/DsrdPxwzHb3huFwdf2RtEPc7Akzf77TcOR7/HukpPoOqgbwqRlzA2KxgJjNppZv2kSc6Q3OGiH5rLP51TbGE7i8OEi+La4AG2cvUCdqTHUhMeqB7M6WB4/skGoOpWDtIOHkFVYbnU4Wzw/sq5O/vxD0guP6Q0wiOdQ1tRBPDquIb1xffG8yUbP0R/Gqq83oLzLWEx94Fb0jUjDyq824qT0sBWDqRzTqXR6VJ46hsKyGpvz8+zX2xLVlKIg8xAOZuSjuErhwXppP+RO5dNXFuHo4UNIzSpASbVBWuqY+joQCn58Ga//XoFuD32BuVMuEt4/2tIgrNd0zHtrDKLSv8Ern+5ElfSIiQG+HXrjEmzGZ19stXMOSCV2fP4hfkdfXNnZxwsfQStrI3lOnmvVRgahj+QgIyMHp6os24RQU3oUhw8dwpGTVcJa9qjZllBmSb5QZiqybco0nk+sZCxIjONLGEONHrbq/xak5ZblEYk1MO1nZmoqjpyodH0/PTjuzMzzRKN9NDJAL2xP7pxZQ8VJ5KQfwIG0HJyokN+KaX6SK5uEXZEv1x6qLsbRzFQcTM9G4elaaWkDp2NYYR+R46jfqIqfVR2AuvJCHEk9hIz8UtTIFyBxYZzabMvIjRgYWT3ftTHtTp9wOn6d7rOamMtxoR3kOK2n0rZRVh9XXhNFTse4MB/p6/u+0BbVYtva7JfEadvVs79Ppr7joXznbElJaU/JKSnULlm4tUumpKR2dMUVV5Byp+nPhzuQT/hw+vSIQVrWoDZ3NT07oh2F+PqSr58v+fgEUNylU2lRapXx8eO/3Eedg0Kox5MbqdS4xKRq9+s0MDyEuk1bST883JECfXxIpxFaQ6sjX7Es//Z031rLZxBV73mN+oUEUe9XdlIVFdDSmxJI22I8LTkqrWAh96uxFB/UmR7+6U/64Mb2FKLTUvBlr9DOatPjzuotMhzfRG/d2osSQgLI39+f/P38hHq1oAGPrqQsqRx7cheMofiQbvTEpnJpieD0Lvp0yqXG8gIDhLKEffaN6EMvba2UVmjM9Trk0pejogmRI+mzTL20zI7itXTfBT4U2ON52iZVpWbXi9TTP5yGzvmTvh7finzaTKYfjpses3JyFU1p60cX3LWIVszoQf7BA+id1IbtmcoJoN6z91GttEwpJW2U9+UoitJ1oOkbLeIsUPJcYx8J7EwPfreG3ry+A0UH+5OPVkM+kZfQ1GXZVFuZSgvv6k6xwYHk76MljTaUOt72JVkUYaR0W3GBnWjaDxtp3pRLKKa+zBDqMHE+HTDGvYzWKxwLJqdozX0XUWDsaPoyx3Js1tDe1/tRqE87uuuXU9IyUTXtmt2XIuJH0fwsgxS7i+ihn/+iz+/oRhG+WtKK29UEUtvr3qbtNptUHFM3x521Alp+ewoFRg6lD9Mb9+OiX++jC4XxMGbBETJHoK5gPb06rgtF+fuQj684znSk84umiyfOoW3FlnEqpd8e7EDBbSbR8kJpkVn5Bnq0cyi1GreQ8qRFdpXupi/+05daBfuRn3GMivvWgkZ8eJDqhIeVjmFlfUSOo36Trip+edKYePjn7fTdI/2ppTDfBvr5CP3Ch8I7jqcPbDuFQH2bmsjNka7HwMT9Ma2uT1jPP87Hr9w+q425O3OeHLnyPNE2iurjwmuiSNkYr6U9bwyk6ABh3PlohPbwpYDAQAoI602v7KqR1jFTNvc62ydP5juOFBcXu3UTc0AxFxRzQjE3TBbyRDFXTGl/AWmNyav0j8cT2RNrMH3E9Zi9Kwn3f70ZB9IP4Z8lj6Jb3jz837hn8EcJEDP8abx8Yyx2f/QM5h+QvnBRl4GvnnoDW1tMwqtPjUD38bPx1cK3MKmjPyL7PYyPF36DRV/Pxo1tfU3rG1Vi19JvsR09MX5sZ/gjHoMnDkWrY7/hy1+ONHqnozHUokZ4V5H+9Ux8WnkD3l6yEnOndkWgGAQF9Rbpj23ATztiMfGdn7D1UCYOH1yPOePDse2NOzB1QabDd74aqkNNZQ0ajjccxbJ7RuE/S2ow+oP12Hf4MA7uWIfPH+6HKAct43Idinfjj11FCOl8FfolOjngHN4J/btFo+rwX9h13LIu4ruieAy950ZccPQHzFl+2OadogGZy9/HisKLMek/V6O1v72jGS5Q2EayFD7X2EdqKrFj3ixs6PY61u87hN2/vIprwvbjk3sfxBOPTsYLh0fgk417cHDvWrx1XRQyFjyMByzjrmJbtTU12D33UXxmuBtLt+3HwZ2r8eq1UTi8cBru/nCf0Ff8kKJoLJhFosdVPRF5YivWbD0hLRPos/D7mlTUao9i87r9qP9OpCEXW9YdBDoPx4DWwttckaYOez55HF/gLizbmY6Mvb/izTHxOLryKUx9dwfqPzxRE1M3x501YZzffAXiS/7G0l8ybPrfKWz+dhUOx1yBScPbGD8JoeOrMe3KkXhiVS1GzF6JLXvTkLrzd3zxYBccXXw/ht/wDvZYHk4X3v1XVYvn4TZmqKtCVY2jUS4o34ZZ1wzClM/z0X3Gt/jrwGGk7/8Hq969Ee2kYad0DCvrI3Ic9ZtWquIHsf1qa3Bg/gN4bnd/vLV2Bw4e2oFfP5qMtjlLMe36+/F9gcUod2OcNp4j3YmBiUfGtMt9wvn4ldtn1TGX40Y7yHG7bRTVx7XXROVjXIvYQY/gwy8/wbT+YQi+5P/w9hdf4svPZmBwhLEoCwrmXgX75Ll8x3Vz5swx3pSojzJZ5IdiBpksHmVMTqYkjx5pPE1bnryY/IN60MxNlhmygQqWT6REbSyNWWh6P6bP+YbGt/ajxFuWUJ7BQPlLJ1Ci/wV0zy8Wh66qttLT3fwoYsRnJHNAU3gDuJ6md/KnyKEfUZr49l1UtIbuSdZR+JD36KDNYay8L6+lSOgoZsjrtNPqTYvyetcVZFDWaeOvDY6vpEmttRQ7diHlS4vkGLevu4geMb9TK15DdydpKe76b0jmwKhdLtfh6EIaEw2KG7eEjkmL7BPeXd+bTNqgy+n1/aZAmo4QhtJVH2WSoeYAvXtFBAX1fI62VhgfNin/m57pEUxxoz6nLH0V/fvsJeTnkSONytuo8btkNc8V+4iWEm9dTgX1fc5Aed/cQPHCu0Bdq5tpcX5DZzTkLKDRsRqKvX6RFHe129JQzNWfUrpFIAwFS+nmlhoKHfgOHTL3a2djwdLRb+iGOB2l3PsrFUuL9Ic/puEJXem6UZ0o7NKXaIf5aNbRRXR9bDBd/upeEt9nG2MnTBfRIz6hNMvGKfiOJrTSUkj/t+iAsU5q99O9cdfI6Y30WBd/Ch9sM86PLRNi50cXCPteZFxwmjbN6EJ+fh3p/v+dEEq2VE5bn+tFgZoWNG6xeQQK/f6+FNLF30zLZI4qTe/gS9HXfeXgSGM17X61H4XoWtO4rzPt9m+lY1hVH5Fjr98ojp+5DqCQ3i/SVqsDWXrKXnAdxWmE/jN7j7DnIjfaVGDcluUcKXA3BqbnuzOm1fUJ2aN+Dsav/X1WGnO5bbrbDo33wb22UVgfl14T1Y5xgT6N3h8cRkG9Z9Fue4PUzG7bKY+xR/IdJ+SOHppvr7zyivEm95j5Zj7SKOaExiON5qON4pFGKXf0vMq9+OGnAwjofSsmdA8WElUhUzXegMiLB6Fr+Cns/SsV4sVatK3H4bVXrkbt8ufw2tKleOm5VQi6/W28NCLGVJYCpzZ+heUHg9HnppFINn+dK+Jy3DyqPSr+/hrL9smdUBqGSyeOQ7cA6a5IRb118cloaz4RWHiXVXEqHxlHKhAa5Y/q4iKUOzkIYSUoASkJQTixYT6++vuU3XM7bLlch7pq1Agb0Wg0Ds5FNRPW0Qo3jQ98fWS6jG8HjLtnKMJ3foGPfj8lLRTeeK2dgy92x2H0f0ajrfB8j1HRRo2ofm4c+o3tD+EFRaJBXLdLkeSvQYsrJuCqhIb90sR2QvfW/qgsLECJ2ICqtxWDQbeNQoqPdFegie2BgR1DUXksGy6dEx0/AGMuj0LepvU4WCkuIOT9+TP2RA/ETaO7I/TQb9hwxNTbinasxbayCzH0yvZoeE8bi0GTr0N7izohtjsGCHWqKhTqJL5jV72f7o27RoJ7YcJN3VCzbQlWpZnPmiXkr12IdSc64Mbb+sJ44EDYxk+/pMK/9124d0i0Tb8PQs8pUzE4ohD/rNmOImmpW2r244dlO2DoORUzb0yCZQgtqRvDXugjSuNXLxKDpt6BnlZfL9Ui8Zo7MaJlBQ5t+BfG78y506YOuRsDN8b0WaMw5nK81g5yFLSN0vq48pp4pse4mYoYeyLfOZu8lzSWZiG1oAZlm59Fv4QoREZG1t/iejyCdWUGVBSVSB9v6dB2wht4eXgR5t0zFYv0N+HNl64RXq6UOobfv1qN7PCOuKhmAxZ+9RW+Mt5WIDO+KxJrdmHxN9sbPoYz04QhsY3w3ki6a6Sm3lSGvYuewLh+HdAyNhbxicno1Pd2fLqvEmRQetFriW9X3PPmk7jCZz1m9G2D5IF34Z01GTjtLPF0tQ6Bwr4FalBxLB9FTkdjOU4eL4chMBqxIXJdRoOEkfdjwkUF+OGjH5At1lmfgeUfrkJRjzvwnyFRptU8RVXfsqH2ubpwtIy3/oqgLigCoX4+iG6bAKtHfEIRHeYrvO5Xo04MvOptRaFt61DpjkQbgtjoQJCU5KumSUC/kZfAP/U3/J4hfhxSgE0/70H0lddj5NVX47KAffjtr6NCPynHvnV/42TyVRje0d/0XJEuUqZOQYiK8AfpxYuyC/fV7qe7464Rf3QdPwm9NTvw3Y8HTR+BGbKxZtFGVF12mzCJS6+0xm3UIrJDRyTIZHCayHZIjtKgJDcPJaoGrx3F6dh9pBLRXXoICYm0TI6aMeyNPqI0fma6GLRPtmk/UXBLtIsTEt2i4ygT6+FWmzrgbgzcGdNni9KYy/FWO8hR0jZK6+PKa+KZHuNmqmLsbr5zdsmE1UNI/BaZBokjn8AzY1vDR6aBNNHJDUc0dGFISAhHXUkaNBe2gNDHFDPkrMaXv+bDUJSPd+7bLC21IKT7Pt8vwl9PXo4rw6VlIm0AQoJsQqC43mXYNHMQhr2ejQ7jH8B/nx6OyzomIzE6D+8N7Y9XGw9vp8Ivn4k1qTfh17n/xUtvL8T0EV/i1Suew3fLn0Jfy3rXc6MOkV1wufDub+Hu3/D30QdwofkcNjml+/HnjpMI7tAPl9jr2aGX4//uuhyfPjkH87ePxyNVn+CD9YQBcybhEssjSp6gom81mgjdea5aZ3JbdmnRZvDVuFj3AtZtzMVj8TuwcrMOfT/rjogWxRjZHXj5t+04eVNb/PlnDlpeOQJdrHIE8Qiz9Ks9avfTrXEnT3fBGEy54hXct+JH7J/WBZ2P/IiFG+vQ57Xr0clPWkn85qLwgqMX/yqRtMiauK/iUXWtC6NXRl0lKuuEXdPr7WxP5Pl5xBWK4ldPC51Opl41pThZVgddRCD8xPeWbrYps6Qw5nKaWjuoqE+Y2tfEMz3GzdTG2I1852zz3pHGoAS0jtTiVFEoBk6cjMmTG99uu7ardN0+wtEVj+K+BRrcOecF9Ex9E/e/ukXh4fI6pK9cgD9PtcHk77JQXFKCEstb2Qn8/VJf+KWvxII/Lb4MYI/Sep/8HZ8s2ImI8XOxetFzuH1kH3RKikMoSlB4yvW/Q6MNScHw6fOwMSsbG17uj9rf/4vpH+62PjHazJ06aJMw8qbLEXniN7z/6dbGR2Hr6ZG98n0sSQvCZTePxoV232b4Ci96/8GIiN1YPHcJFs9bhoMtxuC+sUme72Sq+pYNd56r1pnclgO65KtwTVc99qzdgr2bf8RfugG49tJIoQ8kov/wjijd9D/s3L8Z69IiMWDEJerr44n9dLcMTSJGTL4CoTu+w/d7SnBg+Tf4O+BK3DGqXUP/C01Eu2gdSjPTUShz7ScqzUHWKSAquS0ijK8oOvj5+0BTeRInK2xeBcoLkFckZoTSfTkhLZEo7FNJVgZOyGzPyEvziGpK4memL8HRwsYX2DKcTEf6SQOi2rdHjPikJtL/PcvNPuEqpTGX09TaQWV9VL0mqh7jHqJqn9zJd84+j7+e1wvrhqGXJ6D87/n4bEuZtLABlRejRGp1Q+4STH9oCbQ3zcYzUx/Gqw92wsG37sfsLRZh1PjC30+HuorTsLqkVvV+fP/NPyhPvga3XtkGYaGhCLW8BUehxy0T0Sc0F2u+XIt8ZwNaYb0NJXnIK9MiODba6srxRX8txZqsOuP5DKroa1Fr+fGCLgb9ptyJ/lGVyE/Lke1Q7tVBh+Sbn8G9l2qw9bXJeGjZEZlBaEDRlldxxyMrUXbx3Xj21gsdHprWJIzE/RMvRPaPb+Hd1YXoOvk/uMLDn0wbqehbjbjzXLW8tS17Y8Ee3wtw1YgLUbb1Jyz8fit8h4xGb2O7+CB50BVIPvYHli1ajV0BfXHNpS40mCf20wNlxF5xB0a3OoQfFi3EouX7EDtqCoZZnJ+GkIsxalgyKje/jzfWHLd5ba/EjvlzsK40CUPH9ILpIIY/4tu2QEDZPqz/97hxiYkBeWsX44/jpvOW7ArrjmuHtEHFpvfw2mrb7Zl4fB5xxEm/aRy/O6zjV+8Y1n+9GtlWH4eWY9u8j/FHSSsMGt3LdA7kmRxrZ4ybfUKkdvwaKYy5nKbWDkrr48JrovoxrpK9tlMRY7fynSbAmDQaAyv9Y/rPE2IwYsYjGBy4G2+NGYoHPv8TezPzkJ+5G2s/nY7hI57CZjFG+iwsevgRfFd3DV58cRTiNcG4bNos3NXuAN598FVsNsffLx4XJIWhfMcifPbTbqRuX421e8tRseNbLPq3CinXjENvO71AlzwKkwZE4di6L7Eqy1kLKKu3Nq4zuif6IGPRs5j1/S5k56Vj67czMO7xXYhLCTYeAlel5GdMGzEBryzdgN2HhReSzO1Y9uYH+KO4BXoP7S47Ibhdh7B+eHrBu7i5VRbmje+Kbtc9jo9XrMdfW//CHz/Ow3O39sFFg57CxuCxeOvr5zHI7qxkFoo+/3cXelfuwd7q/ph6ew+ZC4bLMaB85xK8MXs2ZlvcXn19LtbnybWXwr4ly53nquWlbdkZC/b546KhVyCp6B+s2liOS0b0qT9/xr/DVbiibSE2rNmNgMtH4XKXTqzxxH56oIzwfrhtfAqyVn6C5WktMXbSAFinwOEY/OQrmJCYi/k3DcTEt1dhW3oOsvZtwKLHr8bIF3YiYeJsPH2luaPrkDT8elwalo/vpt2JV9fsQ1b2IWz+4gHc8m4xOrTzM35BzL4oDHvmZYxrmYP5Nw/ALW/+hK2p2cg+9A++n30rbv8oDfD0POKIs37TKH4DbeIn8WmNuOz/4sY75+C3/Vk4cnAzlswchVGzdiB4+EzMHB4trXgmx9qZ4m6fEKgevwLFMZfT1NpBYX1ceE1UP8ZVstt2CvfJzXznTBFzQFMe2PBbPfFr1PUX9m7XjtomJdEQtZfceawLhUSNlLm4t4FObXmLxneOIj+thoQJkDQ6XwqKbk/DZqygw1U1lDZvLLX2j6dr5qZZXJLCQMdWTqEUv3Dq89wmKpGWlv39Gg1P9CdhSBJ8Uui+tbm07uEuFBTQmR79s0xaS97RJeMpQRtBg9/Zb7ycSO5XY4wXGX5sg9U1DCTO6m1aq2jTLLqmXTDpxHW0vhSSOIRmLltJzw6Mpdgr3yOLK8s0Il4cNc7y4qgnfqYHe8RSgE5r3J7Wx49CW/aiSR9uJ0d75k4dzPSndtDn9w+mduF+pNVq62/ixUmFdxUU3HESfba71OryBTU7X6HLQqJo+CeHrZaLF1teNvki6nLPKjohLTGppn9f6ElBoYOsL7mz82W6NNiH/Pz8Gt/Ch9D7GfZ2QFkb5S0YTdH+XWiG5SUvlD5X6CNxgUIfsXqu8OzMuTQ8KpR6Pb+NLC5DS1R3iOYMi6eofrNpT31ndm9bRMdo2cS2FNrxIfrN4koOjceC5WUeZJStp+mdQ8gv/jr6KteyxYrpfw9cRIG6aLpmXsMFsEXysRMV0JKbW1FIp2m0rn6zyvbTE+POkepdr1DvIFDQpS/Sv3au/1udtZKeGJZMYb6msabR6Mg/vD2NeOZnyrG9pq/QwmkLp1DXMJ1x9tRotBTYZiTN+mU5PdwtTNHFvasyvqNHhrShYPFCx8L2tMI+BSf0oinfZJDYu5WOYbV9RI6zfuMsfuZLrdz37VJ66kpxn0ztpPWLpK4TPqBt5us61XO9TRvNkQJ3Y+CZMa28T9gbQ/baQXafVcbcnTlPjlx57reNgvq4+JooUjXG9Wn0/tA4ihv4uvNL7gjsjyFn++RuvuOgY9uQu4yO+abkkjtiDtjWeMmddkJ+mGx1yR2N+ItAqJZ0lFH4mZycjHW//WZMKpUw/mkcg/AeTOcD+TdZdTh9LBf5p6qgC41Fy4RoBEqXxRGfqzdooPXR2XxWTjDU6WHQaOGja3iEak/j+NFCVAbEo1VcMHR68U/yaKATni+7aTMyGP9ED7Q6+IiVFP+cmYGgEeosd36xif1619NXoaggDydqQ9CiVTxCfYVNiXXSSNuxR/zzQHrxgu+WMdOjsqgQBcdPQxMWg/iYSAQq+aqSq3WwVVeBU4XHcLykGr5hcUiI1ePftyfjlmd+Qa4uGdfP/gafPXAZIsXmMMZTL8TTp/E2xD/NJLwjt2g2E2PMxSYQ2tr8FKGchj/jZEuuX9hy0kYO29nJc6U2avRcqc7ivtvuo7E/kxD3RhtzcVsC8Ru0xj4ubMyqGjZjwVlXMdVNPKHe5iRwofxaIUZiX7TatoPY2S3LrfYwUzDu7Kj69wX0H/AWQmdvxa8POjqdglBbegy5BcWo849CQstYhPjarZAQ6xIcPZKPMt8YJLaORZCQLxjEL7goHmOE6uKjyCs8Da0wtlrERiDAcp+UjGEX+ogcR/3GWfzyF4xClynpuOOPbXizn7/QTjnIK9EgIqE14kMd9UAX2lRujnQ3Bh4c04r6hKMxJNcOMvusOuYOx5gL7SBXnsfaxll9XHxNNFI+xo1jTXjNajxvy3M899rfJ3fzHaW7Ln6fwx7zhb3vu+8+4085Y6+/HocPZ0L8oENIfoU2M/5i+t0TSSM7lxlwYtPruPP/3sU/xRpEXnovPvrsCQyKczbTMHamFWPt/b1xzdIu+Hz7MkxopewFgJk5j585gZny53a80bcZfeWzGeOYM7W8mTQ6PojDmNBFYvo9jpUH8nH0aB72//AUJ4ysSarcPQ//XZiDznc9hus4YVSN48cYc4aTRsZYM1aN7W/eiCEDL0XHAY/j3w6P4oPH+lhfoJk5wPFjjCnHSSNjrFkLiE1AZFgSRjyxDNvWvWDnQvjMHjXx00b1xNhJw3ERZ5VnDMecNSV8TiNjjDHG2DnA0fmMSjk+p1FMGAXGf02/NvxkjDHGGGPnD3NCKP5v+iHdJ/54mjHGGGOMOcdJI2OMMcYYc4qTRsYYY4wx5hQnjYwxxhhjzClOGhljjDHGmFPNJGnUI23ezejRdRTe3VMrLWOexTH2Po6xkUGP2lrx7/lK9xljzU5F6gq8/sIc/J5XJy05X8nP6+dqfKSksf4L1eZfmxzN6aNITT+GcvHCQcwrOMbexzEuwq8PdkFYUByGvLEHNdJSxlhzUon9C1/Cs88/jVk/HhHSpvNb43n93IhPQzoo/Gb6nz+eZoydQcf/wJcrcxAWbcD2b5ZgZ4W03FZtOpY9PgZDJn+N7Cb6Rva8w21yblPVvoHoMW0BVqxcibmTUqCTlnpUs+5vZyA+ZwknjYyxM4SQu+YL/K8wBSNu6ImAPUux8J9S6TEbhmLsWv0LdhZWSwvYWcdtcm5T2b7ayM4YPnogkrz15w2beX/zenzOEreTRqopRUHmIRzMyEdxlcxBWNKjrq4OBuM7BUJNST4OH0pF9skqGIwryDGg4mQ20g6lI7fItJ7iNxpW2zOg8lQOMjJycKrKcmtCPUqPCvU4hCMO6yGUUHESOekHcCAtBycq7BxkNlhuUy9s8xgKy2ps6kyoEuqSdvAQsgrLVR2u5hgLOMbNPsbQH8aqrzegvMtYTH3gVvSNSMPKrzbipPSwGRnqUFsj1EP8y1VSHGpra+2eA0n6OtTpDfKxlZ4vPGzDyX4oioXCuDqkPJ5qtqWvLMLRw4eQmlWAkmpHPcOS/bqobRNLTseWBaouxtHMVBxMz0bhafnzfu2tI9axrk6uH5DQnMJjpsa04ixO6uYF18apN+otz8Pta7XvJp7aFzX1cX8Mqi1D4bwuEx9Lnqj3WZGcnELtkpMpqV0ytU1qR23bJtGQIVeIf4/aIcPxTfTWrb0oISSA/P39yd/Pj3z9W9CAR1dSVrW0kiD3q7EUF9iJpv2wkeZNuYRiggPJ30dLGm0IdZg4nw5USitKKtMW0wN9W5C/BqTRaIzrXTj+PVr8Yn8KDriUXtlTK60pT9xefGBnevC7NfTm9R0oOtiffLQa8om8hKYuy6baylRaeFd3iq2vRyh1vO1LSq2SCpDUFaynV8d1oSh/H/LxFfbNR0c6v2i6eOIc2lZskNYyMW4zqDM9/NOf9MGN7SlEp6Xgy16hnVIcanNX07Mj2lGIry/5+vmSj08AxV06lRbZbtQGx7gBx7j5xtises9r1C8kiHq/spOqqICW3pRA2hbjaclRaQWjMlr/cEcK9PEhnRA7aHXkK27Pvz3dt7ZUWsdSAS2/PYWCYq6heVl6aZmZgY58MZri/C+ge345KS1Tth/OYqEmrvYojaeqbZ3eRZ9OudTYnwMDxHV9yDeiD7201aaD2nBcF7VtYqJ0bBmV7qYv/tOXWgX7kZ9xXbEeLWjEhwepTlrF8Tql9NuDHSi4zSRaXiitb1a+gR7tHEqtxi2kPGmRszipmRfcG6eerbc93mjf3AVjKD6kGz2xqVxa4ql9Oa6oPp4Yg2rLUDOvN46PiSfq7UhxcbHbNzEHbJuUZMwJxdxQzBHFXDE5pT25nDTW7p1NV3QeSY9+tpZ2Z+VT3uHNNHdSBwpEFI349DCZp++8L6+lSF17uuLaPnT57R/S7wcyKXPv/+i10W3IF2E04M29VCOtazj6PU1J8SNteE+6b/4ftPdwFh36axE9dsUF1LljW/JT8GJr2l4yDbh6MI15/gfak5VF+9e8Rte19SNN3Bh65L7L6cIrn6TlO9Ip8+A6enusUK5Q5+FzG+psKPyF7u8cSJqgDjTh7VW09dARoc5/0lePDqI4Hw1FX/kW7bYYo6ZtdqBRN/eni695nD797kdaOP8HOiSOx+Or6YEuQeSXMISeWLyV0rMP0/blT9NVLX0p6OLHaH2xqQw5HGNpZQHHuPnG2KSC/nm2BwWGDKA395v2/fgPt1GiJpqumZ9VX2chtaScLStp2eL36PZO/hQ54FGat2QZLV26jH5Pk39hPLnqDmqjjaBhnzTsu5H+MM0dHkX+nR+jDaelZQr3w1Es1MZVlsJ6qNtWPi2d2IZ8Qi6me774iw7n51LGnj/p6xceoTlbK6R1ZDiti/o2ESkdW3R6K/13QCRpA5Lo2heW0/bDeZSTvoP+99H99J+PpaTR6TpCwnJfCunib6ZlMgnL9A6+FH3dV1LC4jxO6uYFd8apZ+sty0vta9r3i+gRy6TRI/tS7LQ+nhiDastQO683jo+H5g4n5JJAtTevJI11BRmUZZ6IzY6vpEmttRQ7dqHQJUyMgYOGYq7+lNItXicNBUvp5pYaCh34Dh0yzgrltPmJrsK7sRS6Z3XDUQGj4vX0SNcAgtIXW2gp8dblVFCftBso75sbKF54d6BrdTMtzm/I5g05C2h0rIZir18k1fk0bZrRhfz8OtL9/zshPNNSOW19rhcFalrQuMUNh0dM29RRzJDXaadVg5+mLU9eTP5BPWjmJst3bAYqWD6RErWxNGZh/fuuRs7lGG/kGEsL5Z1LMTYqXU/TxReAoR9RmvnQUdEauidZR+FD3qODtuGo2kpPd/OjiBGf0RHryjdW8hs9cKEvRVz1YUPZgtqD79CgsCC67OUdJOa9avbDUSzUzg+NKa2Hym0Vr6G7k7QUd/035Gjr1lS0rZo2ESgbW9W0+9V+FKJrTeO+ziT5UaFkHRUJi4I4qZsX3Bmnnq13Y95rX+O+u5o0KtkXu/XxzBhUV4b6eb1xfDxRb+fkkkC1N0dJo+mcRovP3E2/2vkQ3oIuPhltzSd4GmpRcSofGUcqEBrlj+riIpRbnWYRg0G3jUKKj3RXoIntgYEdQ1F5LBvG81yr9uOX1anwvfxePHRFlGkls/DLMP6a9vCV7joXh35j+0MYtBIN4rpdiiR/DVpcMQFXJdQ/INSjE7q39kdlYQFKxNMKKvfip19S4d/7Ltw7JFp4pqUg9JwyFYMjCvHPmu0okpaahOHSiePQLUC6KxLK+uGnAwjofSsmdA+G0J7SDYi8eBC6hp/C3r9ScVpa3da5HONVHGMFzo0Yi05t/ArLDwajz00jkWz+KmHE5bh5VHtU/P01lu1z42T3sD64ZUwHoZzF+DnDfE20GhxY8S22aS7H5Ju7wl9cpHo/5GPh2vxgQWk91G4rKAEpCUE4sWE+vvr7lMPzI+t5oG3tUTS2avbjh2U7YOg5FTNvTILF0GqgZB01FMRJ3bzgxjhVo4m1r1tc2RczD41BVWV4Yl73RL3PILGP1LP43fUvwlAZ9i56AuP6dUDL2FjEJyajU9/b8em+SpBBb5126qLQtnWodEeiDUFsdCCorho1Yo8pPYwD+dUIadkWMY2i74+ohCj4Sfec0oWjZbx5xJvogiIQ6ueD6LYJsHrEJxTRYb7CvFCNOrHSpVlILahFZIeOSJCZnTSR7ZAcpUFJbh5KLHdSE4bENpHWHcFYVg3KNj+LfkL9IyMj629xPR7BujIDKopKYPflkmPMMT4XYoxj+P2r1cgO74iLajZg4Vdf4SvjbQUy47sisWYXFn+zHeXS2uoJE+7ECeiu345lP6XBmDZW7cWKZXsRNuz/MMacpardD7uxcCGulpTWQ+22fLvinjefxBU+6zGjbxskD7wL76zJwGmrBMeG223rgJKxVZyO3UcqEd2lh5BkGZ/VmJJ11FASJ1XzghvjVI2m1r7ucGVfzDw2BlWU4Yl53RP1bgJcTBrLsGnmIPS+7TNktJ2A/369Gn/vy8aJE1vwXK8g4XHrHFqR2ipU1WngFxIkk7ET9HU2A9VbxG9/CR1XX1tn59uoGmg0wk2rtd5LbQBCgmx6AollaZA48gm8+d67ePddy9v7+PizzzHrpmQ771A4xhxjNzSZGAtVyVmNL3/Nh6FoM9657zZMnjy5/nbnU98hU0i4D36/CH+VSE9wgV+nG3Brbx12fr8KB2uBip1LsXRvFEZMHoaW5h1Uux9ysXA1rpaU1sOFbYVfPhNrUg9g9es3ITFzIaaP6IgLhr6CzfZi62bb2qdwbNVVolLI8kmvt7OPAiXrqOQ4Tl6YFzyk6bSv+1Tvi5knxqDaMjwxr3ui3k2Aa0njyd/xyYKdiBg/F6sXPYfbR/ZBp6Q4hKIEhadc/BsPQdGIEd6SlRzJRlGj6J9G9qE8VEn3vCo0Ee2idSjNTEehzF//odIcZJ0CopLbIsJZywYloHWkFqeKQjFwYsMLpeXttmu7Ikxa3co5HuMkjrF3NZUYow7pKxfgz1NtMPm7LBSXlKDE8lZ2An+/1Bd+6Sux4M8T0nNc4NMe107oA59/l2Ll/pP4d9mPyEwehzsGWXyU5NZ+SDwxPyith4vb0oakYPj0ediYlY0NL/dH7e//xfQPd0P2AjaeiIkcpWMrpCUShe2XZGXghMw+GilZBzr4+ftAU3kSJytsBl55AfKKhCfaLLYbJ2/MC3Z5sN7S41a81b6yvLwvZp4Yg2rL8MS87ol6NwEuJY2GkjzklWkRHBsN8X2XWdFfS7Emq854zoRqEZfgqp4xKNk0F59vtf4zEfrsFZiz4ojH3mU6FHIxRg1LRuXm9/HGmuM2fbwSO+bPwbrSJAwd0wvh0lK7wrph6OUJKP97Pj7bUiYtbEDlxSixMzrO9RiP5hh7VxOJMar34/tv/kF58jW49co2QiIUilDLW3AUetwyEX1Cc7Hmy7XIN1dU4wt/Px3qKk7D6pJ3dmnR9upJGByyFz8sXYwlq3LQUSj3shDpYZE7+2HmiflBaT3Ubktfi1rLk8N0Meg35U70j6pEflqO/HlramKiok0Uj62w7rh2SBtUbHoPr6223UeJknXgj/i2LRBQtg/r/z0uLRMZkLd2Mf44bjqXz8hJnEq9MS/Y5bl6n8n2lefhfbFXH0+MQbVleGJe90S9mwCXkkZtXGd0T/RBxqJnMev7XcjOS8fWb2dg3OO7EJcSbDzEqpqmFUY/dhd6aLZj9tgxeG75v8jIycTO1W/jtjFvgvr1tj43xGvCMfjJVzAhMRfzbxqIiW+vwrZ04R3Avg1Y9PjVGPnCTiRMnI2nr4yQ1nckBiNmPILBgbvx1piheODzP7E3Mw/5mbux9tPpGD7iKWy2cwYyx5hj7J6mEeOKHd9i0b9VSLlmHHrbmQl1yaMwaUAUjq37EquypKnXLx4XJIWhfMcifPbTbqRuX421ex2f9ahpORxTRrVA1rrvsaW0F267qZvwMmbJ9f1o4Im4Kq2Hym2V/IxpIybglaUbsPuwkPhkbseyNz/AH8Ut0Htod8jXSEVMVLSJ8rEVhWHPvIxxLXMw/+YBuOXNn7A1NRvZh/7B97Nvxe0fpQkvxkrW0SFp+PW4NCwf3027E6+u2Yes7EPY/MUDuOXdYnRo5weNVtqmkzhFeWNesMtz9T6T7SvPw/titz6eGIMqy/DIvO7JOfksMl5yp13DJXfatBUvuTNEeEPgWNGmWXRNu2DSacULXPpSSOIQmrlsJT07MJZir3yPUqULWeV9NYbiAjvTYxutL3BJdIyWTWxLoR0fot/qrwRQQ0dWTqf+LfxJ6FrGi2fqQi+kG9/ZTH+9eyVFhvSmWXvMV8OTZ297hsy5NDwqlHo9v026/Iak7hDNGRZPUf1mk+VVUKqzVtITw5IpzFdruoinRkf+4e1pxDM/U45NFXKFbYoXAn5sg+0+igx0astbNL5zFPmJsRLL0vlSUHR7GjZjBR22qow1jnEDjrFJ84pxMa17uAsFBXSmR/8sk5bJO7pkPCVoI2jwO/vrr3dZ9vdrNDzRFEP4pDi80LBZ8a/3U4dAP2p140LKlb1siLL9cBwLdXGVpzyeird14md6sEcsBehM62l9/Ci0ZS+a9OF2chx95XVR0yZKx5aoKuM7emRIGwoWL4At1l3YfnBCL5ryTUb9NRGdr1NFaQunUNcwnXgQR1hHS4FtRtKsX5bTw93CGi4srSBO7s4L6sap5+otzzvtK168Oq7Rxas9uy+O6uP+GFRbhrp5XT4+nqm3I3KX0FF7Ey+5I+aC9ZfcEW7mS+5oxF8ExkOlxp/CLSW5HdatWycscUJfhaKCPJyoDUGLVvEI9RXK0NdBr9HBx/yOQvxTOnqCRucDnbTITPwWml4Iv05nc+KnvgIncnJxwhCChFYJCPcXHhXWFU8i1ep0MBcty972yAC9+LfEtMJym+Or4p8s0pNQZ9sKClGpLT2G3IJi1PlHIaFlLEJ8ZTZurJv8Pjaow+ljucg/VQVdaCxaJkQjUMlfMecYm3CMTZpZjI1xFGPjo3N8crewX+KfAhQC0xBzAdWexvGjhagMiEeruGAFl1uRTkq3KacxJ/uhKBYK4+qQ0ngq3ZYelUWFKDh+GpqwGMTHRCLQedAkyuqiqk2UjK16hOrio8grPA1tWBxaxEYgoNH2na9DtSU4eiQfZb4xSGwdiyAhfzGIX6Kx2qaCOLkzL7gwTj1Wb7s83L7SvmuFfbdtSk/ui+P6eGIMqixD6bzuID6eqbc88Vxxd40dez0yDh82HlU33oRl4k/hH2jaCUmjkCmaEkbxP4LypJExxhhjjDUJnkkaxwpJY6aYIwoJoylxNCaMwg+XzmlkjDHGGGPnF04aGWOMMcaYU5w0MsYYY4wxpzhpZIwxxhhjTnHSyBhjjDHGnOKkkTHGGGOMOSUkjeKFdiTGX+rvMcYYY4yx84gpCxT+ldLB+vsCPtLIGGOMMcac4qSRMcYYY4w5xUkjY4wxxhhzygtJox5p825Gj66j8O6eWmkZUJG6Aq+/MAe/59VJS7zLG9s70/twZsi3l6edm7Fzj9KY5C2ahIs7DsXLf1dISxwzrX8VXtpSLi050zwzB8itz/3ozDvfYn72x8/5xL3XnzPVVp6Yu84VXjnSqDl9FKnpx1Au/qFCo0rsX/gSnn3+acz68YjQTbzNG9s70/tw5jRuL087d2PnOuUx0dSVIDctF8V6Ze1Tv77BW+3pnPtzgNz63I/OvPMv5k1h/JxP3Hn9OTNt5Ym569xxhj6eDkSPaQuwYuVKzJ2UAp201Hu8sb0zvQ/nEo5dY+dbTOzsb206lj0+BkMmf41s6Zt6JnLrcz/yGlXtwDzKbuxV8EQZzA5PzF3njjN2TqM2sjOGjx6IpGBpgZd5Y3tneh/OJRy7xs63mMjur6EYu1b/gp2F1dKCBnLrcz/yEpXtwDzIQewV80QZzC5PzF3nCilptL5Wo7o3KgZUnMxG2qF05BZVCffsPJ/0qKurg0H2QaGME2IZaUIZ1abnG8T19dbrW5VBqCnJx+FDqcg+adquFQfb01cW4ejhQ0jNKkBJdaNn2n9crkyrZQZUnspBRkYOTlVZlivUtfSoUNdDOCJXVwuGipPIST+AA2k5OFHh+MC2s/2Qp6y9yFAn7JdB5jESmkZ4TC6wAqouxtHMVBxMz0bhaYtzVLwUO1fq6WrcKo1xE/roKakeMn1UVX0c9FE5RKYV68qPIzvtEDLyS1Cj8LlmVFOKgsxDOJiRj+Iqmf5lVScnY6yea3OAGKvaGuG+BtBIj9XW1kJvfrJcfBzETFW72pRTV16II6liTEvlY2psa/P6eqGvHkNhWY3VfjqNbT1CldDX0w4eQlZhud2Pr5zvj5NyrPbRflu60g6u93P350gRidvQy21fIG1PeLgRNfOrJXfGtaO+5TT2Ekd9y1kZZ7utrCmcK+opGyvyPDM+jGza1Gm72azfLJn31fTDRLzTLjmZktq1o7ZJwq1tErVp05YGDxkivD45V5m2mB7o24L8NSCNRkMabQhdOP49WvxifwoOuJRe2VMrrUmUu2AMxYd0oyc2lUtLTCoPfUP3XS6UodWSj68/+QdEUueJH9N3s4dQVERfmr2rRlpTKOOrsRQX2Imm/bCR5k25hGKCA8nfR2vcboeJ8+lApbSiQHZ7p3fRp1MupYSQAAoM8CNfHx/yjehDL22VnujkcbkyxTrFB3amB79bQ29e34Gig/3JR6shn8hLaOqybKqtTKWFd3Wn2Pq6hlLH276k1CqpAEldwXp6dVwXivL3EeIgbltHOr9ounjiHNpWbJDWkjjbDzuUt1cp/fZgBwpuM4mWF0qLzMo30KOdQ6nVuIWUJy0yKt1NX/ynL7UK9iM/f6Ed/XzJ168FjfjwINUJD3sndirr6XLcltBDA1pSgM7cR8Opw7gPaMksoY+G96PXXIybvTFhK+/LURSlu4imr91LKx7pTy38hVgI7QfoKKzTzfTRzjJpTRPT+h1o+saGcg3HN9Fbt/Yy7ru/sX2E/fdvQQMeXUlZ1dJKAjVjTOT6HFBG6x/uSIFCG+iE50KrI19foc/4t6f71pbKrG8iGzMX2jVP6nsP/7ydvhNi2jIkiAL9fEir8aHwjuPpg+2mOpgZ+2qQsP5Pf9IHN7anEKEvBF/2Cu0UYqc0tqLa3NX07Ih2FCLuqzBGfHwCKO7SqbTIckJQsD9KylHWlq60g8p+7vY4t1VAy29PoaCYa2hell5aZmagI1+Mpjj/C+ieX05Ky9TNr43Hj7r9Vd63nMfeed9yVsbZbqsGauYKkZI+LjfXiTw3Pkw8MXedKcXFxW7fxBxQzAXFnFDMDZPaJZOYKyYnp5DLH09TwQrcN2IS5uxrhf+b9wf2ZGTi4Oa5uO7E+3jxmxzYfg9KQ3WoqayxWk5Hl2PqiMn4cF8Cpsxdh+3CO5fd697H8JzX8fyibJRX1cDyu0caQ62Q3ddg99xH8Znhbizdth8Hd67Gq9dG4fDCabj7w3315Tfe3lEsu2cU/rOkBqM/WI99hw/j4I51+PzhfogS2t354/L7INappqYSO+bNwoZur2P9PmEffnkV14Ttxyf3PognHp2MFw6PwCcb9+Dg3rV467ooZCx4GA8syKx/N0PHV2PalSPxxKpajJi9Elv2piF15+/44sEuOLr4fgy/4R3sqZJWVlBPOWrbC8I70KrqWtl3kYa6KlTVWDxSvg2zrhmEKZ/no/uMb/HXgcNI3/8PVr17I9pJPcxbsVNeTxfjdmwF7h1+K97f0xJ3zv1N6KOpQh/9AFcfewsvGvtotXXsVMRNLib2GXDgswfwwr4BePfPA8jM3IvfP7kdSdmL8eCYe7G8wP4+iPTHNuCnHbGY+M5P2HooE4cPrsec8eHY9sYdmGoRTzVjzL05wA8p42fjq4VvYVJHf0T2exgfL/wGi76ejRvb+hrXkO0zjZa51q4Q+15tDQ7MfwDP7e6Pt9buwMFDO/DrR5PRNmcppl1/P763iKmxr1bXIf3rmfi08ga8vWQl5k7tikBhFaWxxYk1mD7ieszelYT7v96MA+mH8M+SR9Etbx7+b9wz+KNEXEnB/igqR2lbutYOqvq5J8a5lXgMGjcQMac2YfGaI9brGLKw5puNKGk/BrcOiDIuUje/2qFmPlTct5zH3nnfcl7G2W0rE9WvPwr7uCyPjg9pXQ/MXecM1440ltPmJ7oKWXkK3bO64d2cUfF6eqRrAMHmnUPel9dSpO4ieqQ+8z5Nmx/vSn66FLrbtoyidTSts79QRi962eJIo7EMoTlirv6U0i3elBgKltLNLTUUOvAdOiQe1hI02l7xGro7SUtx139DR01LrDl7XNB4H8x10lLircupoP4Nq4HyvrmB4oV3IbpWN9Pi/IZ3soacBTQ6VkOx1y+ifOOS07RxRhfy8+tI9//vhPBMS+W09bleFKhpQeMWS7VSUM/G1LaX8O70vhTSxd9My2TenU7v4EvR130lvTutpt2v9qMQXWsa93UmWb9XbOCd2Kmop0txU9BH/Xu5GDf5mMgxvpsW5t2QPi/TvxXSQiM9ZS+4juI0IdTvtb1kHily777rCjIo67R0x+z4SprUWkuxYxdK8TS3iZIx5ok5QFC1lZ7u5kcRIz6jI9adX3b9Rstcalfzfgox7f0ibbUKvzmmwXT57D1C7zYxra+jmCGv006bA5jKYnuatjx5MfkH9aCZm8xHmkQGKlg+kRK1sTRmodAznO6PwnIEpjormy/VtYML/dytcS6j5Dd64EJfirjqQ0oz74Og9uA7NCgsiC57eQeZjimdpk1q5leB7JFG1furvG85ir3ScWu/jCbQVqrnCjV93LatvDM+Go8Bgcq560yRO3Ko9ub5I41V+/HL6lT4Xn4vHrrC9G6uXvhlGH9Ne0jvceyrOoBf1qTB99L/w31DbMqI6IObr7VXRgwG3TYKKT7SXYEmtgcGdgxF5bFs2D0POCgBKQlBOLFhPr76+1Tj8xucPe5QHPqN7Q9hUEk0iOt2KZL8NWhxxQRclVD/gFDXTuje2h+VhQUoETdSuRerfkmFf++7cO+QaOGZloLQc8pUDI4oxD9rtqPIuMiFenqiveyp2Y8flu2AoedUzLwxCRbNopAbsVPDxbj9LMTNr/fdeMA2bkIfHX9Nigv766ooDJ46Gd0DpbtGWiReMwXDE8px8M9/cczBgTVdfDLamk/KFt5hV5zKR8aRCoRG+aO6uAjlVocJFIwxb/YpNdwat5EYNPUO9AyS7hqJMb0TI1pW4NAG25iG4dKJ49AtQLorURRbYZz/8NMBBPS+FRO6BxvPTzXdhFpcPAhdw09h71+pOO1sf5SWI63u8nzpcR4e52F9cMuYDqj4ezF+zjB/HlWDAyu+xTbN5Zh8c1f4i4uEeP2kZn71GLV9S566cespHm4rtXOF6j5uodmOj+bDtaSx9DAO5FcjpGVbxDR6ZfBHVEIU/KR7doll5FUhtO0FSGi0sj+iW0bLl6GLQtvWodIdiTYEsdGBoLpq1NjruL5dcc+bT+IKn/WY0bcNkgfehXfWZOC0edA5e9wRXThaxlt/TUoXFIFQPx9Et02A1SM+oYgO8xXGfzXqxEmjNAupBbWI7NARCTIZiCayHZKjNCjJzUOJuL4r9fREe9lTnI7dRyoR3aWHMKlIy9RwJ3ZquBS3TBw8KsQtMQXxMnGLbRVjemE6E7RRSG4nvC+W7tYLSUT7Fv6oOlWIUkcZE5Vh76InMK5fB7SMjUV8YjI69b0dn+6rBBn01h/kKhlj3uxTarg1bmPQPlkmpsEt0S5OeFEuOo4yy5hqwpDYRmZ9JbE1jvMalG1+Fv2E2ERGRtbf4no8gnVlBlQUlaDa2f4oLUda3eX50tM8Ps6FhG/iBHTXb8eyn9JMpzFV7cWKZXsRNuz/MCZZutCJ2vnVU9T2LXvUjFtP8XRbqZ0r1PZxS811fDQjriWNtVWoqtPALyRI5mgCQV+noDOL51LUaYUygmXLMBiUzPrqhF8+E2tSD2D16zchMXMhpo/oiAuGvoLN0jkOzh73CvGbbcKu6mvr7JwTooFGI9y02voJSHU9PdFe9tRVolKYsUmvd3hOS1OgPm6VqKq130ddD5oLNDr46Bq9BAHVxTheWgedfyD87I7mMmyaOQi9b/sMGW0n4L9fr8bf+7Jx4sQWPNdLPBQiU64z3uxTKrk+brXQycW0phQny2Riqg1ASJBt5qEwtiSOcw0SRz6BN997F+++a3l7Hx9/9jlm3ZRsjKXD/VFRzrnOr9MNuLW3Dju/X4WDtUDFzqVYujcKIyYPQ0tzs7owv3qGyr4lywvj9mxQO1e408d5fHid1thaUospnuSDohEjvN0oOZKNokZPOo3sQ3lwdl4xAmMQG0IoyT6CokajuRzZB/NQKd3zJG1ICoZPn4eNWdnY8HJ/1P7+X0z/cHf9CavOHve40EQkRetQmpmOQpm/OESlOcg6BUQlt0WExRyhqp6q20sHP38faCpP4mSFzRPKC5BXJGaJ0v2QlkiM1KIkKwMnZOrvXSrqKVEXtzjEhQp9NCcbxTJ9NOtAjk0fVV8fxfSlKDje+M8IGoqOIFMYQJEpKYix9yJ08nd8smAnIsbPxepFz+H2kX3QKSkOoShB4akaaSWVPDEHeJBL41ZfgqOFMjE9mY70kwZEtW9vP6ZmSmMblIDWwjg5VRSKgRMnY/Lkxrfbru2KMGl1u/ujshzv8GI/V8OnPa6d0Ac+/y7Fyv0n8e+yH5GZPA53DLL4CFSYX9u5ML9ac2F/z2TfcqgJtJXaucKdPt4kxse5w9Rcwr/i5/sSp+91ZEVcgqt6xqBk01x8vtV6YOizV2DOCptvtMmJ6IYh3aNRsvFTfL7N+u9G6o98L5SR5dkjV/pa1FoeatbFoN+UO9E/qhL5aTk47exxabHHhVyM0cOSUbn5fbyx5rjN+K3EjvlzsK40CUPH9EK4uMiVeqpuL3/Et22BgLJ9WP/vcWmZyIC8tYvxx3HTeSJGYd1x7ZA2qNj0Hl5bbVt/b1NRT5fi1hVX9IhFqdhH/7WJ25EV+NCduKlWgN+/Wo1sy30QEtdtn76H34paY/B1lyJCWmrLUJKHvDItgmOjYXmKVdFfS7Emq861OnliDhBpfOHvp0NdxWlYXQpOKbfG7TGs/1ompvM+xh8lrTBodC+7MTVTHNuwbhh6eQLK/56Pz7aUmZZZoPJilIgZrrP9UVqOWqrawZv9XA0t2l49CYND9uKHpYuxZFUOOt4yEZeFSA+LhPl1lJr5VZYr+6uib9mJvapxa7f9mkBbqZ0r3Onj3hofctydu5op15JGTSuMfuwu9NBsx+yxY/Dc8n+RkZOJnavfxm1j3gT162193oMcTWuMmXEXumv+FcoYi+e/F8rIzcLuNW9h4vCXUNlHQRlqlPyMaSMm4JWlG7D7sDAYM7dj2Zsf4I/iFug9tDsinD0uFeN54Rj85CuYkJiL+TcNxMS3V2FbuvDud98GLHr8aox8YScSJs7G01dKNXClnqrbS4ek4dfj0rB8fDftTry6Zh+ysg9h8xcP4JZ3i9GhnR80WvPb8igMe+ZljGuZg/k3D8Atb/6EranZwrvHf/D97Ftx+0dpypIHl6iop0txa43rHr8HPTXbMPv6G/DSDzuRkZ1hjNvE4S+gvM9lbsRNJW08IjJexo13zsFv+w4j68AmfPP4Nbj2v7sQNmImZg6PllZsTBvXGd0TfZCx6FnM+n4XsvPSsfXbGRj3+C7EpQQbP55TzRNzgMgvHhckhaF8xyJ89tNupG5fjbV7rd9EOuTOuPVpjbjs/5piuj8LRw5uxpKZozBq1g4ED3ccUzPlsY3BiBmPYHDgbrw1Zige+PxP7M3MQ37mbqz9dDqGj3gKm8UM1+n+KCxHLVXt4MV+rpKm5XBMGdUCWeu+x5bSXrjtpm5CmmRJ5fwqy4X9VdO37MRe1bi1235NoK1UzxXu9HEvjQ857s5dzVW7dsmUJF5uR7i1UXzJHVENHVk5nfq38Cehyxkv1qkLvZBufGcz/fXulRQZ0ptm7bG4MPeCMRTX6GKXYhmP0MCWAST0W9JofSgwpjONf/tP+vPV/hQc2Ide229xyY6vhDICO9NjNhfyJDpGyya2pdCOD9Fv0rfsG23vxM/0YI9Y4wWaxbpqffwotGUvmvThdjJeGtnZ4wK5fbBXJ0PmXBoeFUq9nt8mXfpBUneI5gyLp6h+s8niaiRUnbWSnhiWTGG+pu1rNDryD29PI575mXIawqionvLUtRcJtU5bOIW6hunEt6HC+loKbDOSZv2ynB7uFmZ90WxBVcZ39MiQNhQsXhxVrJfOl4ITetGUbzJIvPyu92KnsJ4ux62Wsn98lAa2CjReyFXsowFRHWjsa3/QxtcHULDVJXdEyuMmPyYay1swmqL9u9D9Xy2ixwfGk6/YP8SyfSKp260f0r8l0ooS8/ozLOJatGkWXdMumHRa8aK6vhSSOIRmLltJzw6Mpdgr36NU6RrJasaYZ+YAorK/X6PhiaYy4JNidYFc2/UbLXOxXc2XxLjv26X01JVivxXHnPB8v0jqOuED2lYsrSjJFeIiXtz7sQ22cVEeW6Fn06ktb9H4zlHkJ64rtqMwToKi29OwGSvosNjZFe2PgnIE6tpSXTuo6eeemiPtKf71fuoQ6EetblxIuTaXPjFTPL8K5MaPqv1V2bdE9mKvvG/ZL6NptJXa1x+FfVy2rTw/Pjwxd50pcpfQUXszX3JHzAnbJiUZc0TzJXc0YtIoEPZY2GvxMLVwS05Jxu/r1glLFNBX4EROLk4YQpDQKgHh/kL4xD+5ZRDehet0qH8TI/5ZHb148XSfhmVmQhnHc3NxSh+KFq1aCGVU4e8nL8OAT9rgk90/4Y7W0hOkMjRCGbbnGIvfJNMLTafTSSc0y25Pj8qiQhQcPw1NWAziYyIRaHVeu5PH5cq0VycyQC/+HSutsNzmeK74J4j0JPfFBkJt6THkFhSjzj8KCS1jEeJru47I2X44oLS9JFRbgqNH8lHmG4PE1rEIEuYdg14Pg/jFjEYNSaguPoq8wtPQhsWhRWwEAsx/rd3LsVNWT/fiZuyjdSGIF/poRACQ/t4QXDKjAjO3bcHMLtYFKaqPbB+VYWwfc5zqcPpYDvJLgLCERLQIldkBq/WlZSJ9FYoK8nCiNkQYZ/EI9RWrIMRTpk6KxpiZB+YAqj2N40cLURkQj1ZxwaZLGTnoM9ZlqG/X/AWj0GVKOu74Yxve7OdvjGleiQYRCa0RryamZkpiW09sw1zkn6qCLjQWLROiEWgeJ0ZK98dJOS60peJ2kKjp543q4dIcKUf6MoVWLtaWFM6vDtpayf6q7lsS2diLVPQtu2UImkRbqXz9cdrHHY5LD44Ph2NA3ZjxtpISp98AdGrM2LE4nHEYEL8kJtRf+Nd4RNr4n9tJozdUbcfLgwbhv/rHsGnTs+h+xq5rwphSBodJI2vazC/sU/7cjjf6Wl38kjG3cN9iZ5O3k0bXzmn0kGPrv8LS7cdh9T2w2nysee4/eGOrL/recTO6csLIGGOMMXbWacUjjCbGY43Gf88UOvo97uvVCjEtO6DXkBEYObgnUlokY+TrB9B26jzMv+dCq8PrjDHGGGPMuxrlguIH0cKPs3qkscWN87Hxfx/h0fH9cUGYUJWICzH0P2/hh91Z+PfDsWjDGSNrwnxaD8AtE4egnd+ZfKvFPEEb1RNjJw3HRR69RANj3LfYuU0j/iFq8TxG43/iT+H1L+Vsn9PIGGOMMcZU8dQ5jRkZh42Xdao/p9H4y1k+p5ExxhhjjDUPnDQyxhhjjDGnOGlkjDHGGGNOcdLIGGOMMcac4qSRMcYYY4w5JZM0ShfjYYwxxhhj5yExEWxIBk2/ER9pZPIqUlfg9Rfm4Pe8OmnJ+UaPtHk3o0fXUXh3T620TL28RZNwccer8NKWcmkJY8qdrf7D47/p8lTbcBs3bU21fThpZDIqsX/hS3j2+acx68cjQvp0ftKcPorU9GMoF69P5SJNXQly03JRbHC9DHb+Ojv9h8d/0+WptuE2btqabvt4P2msTceyx8dgyOSvkc0fezctdtsmED2mLcCKlSsxd1IKdNJSxmTxGG+eePx7ntfHgqfaxgPl8Lh3XzMcg95PGg3F2LX6F+wsrJYWsCbDQdtoIztj+OiBSOI/hcWc4THePPH497wzMBY81TZul8Pj3n3NcAy6nTRSTSkKMg/hYEY+iqusD6KSoQ61NXUQP1nRkB51dcL92lroG70rMaDyZDbSDqUh91SVcE9cJK6vh8FiXbG8ujqDzPd0SFhdeMxy5XqEqlM5SDt4CFmF5aoP81J1MY5mpuJgejYKT8uf22aoOImc9AM4kJaDExV2tmDcHyEWxirqUXnqGArLakz74uAxVfssxdi8qK68EEdSDyEjvxQ1NgU4bRubspzzZhsqjLFEX1mEo4cPITWrACXVxpooYECFsf7pyC0y1d/Zrqupkz1u9516yvq5a7GxX7byMS7He33G0bxkSVU8rMaEUHchJhkZOThVZfk8Qk3pURw+dAhHTkr7ZIf7/cf1Nndn/HsltvUc9zWxTnJ9i8R+oG/cR5zP305iaBMHd+ZUVf3Y0Zh30DZy7LaDXDlWy4S+XJIv9OVUZNv0Zaf9xwm1fV/J67CzdZT2W3G/lYwrkTvbdGcMnlXi355OSmpHbZOSqE3btpTYpg0NHjyEnDEc30Rv3dqLEkICyN/fn/z9/MjXvwUNeHQlZVWLa5TR+oc7UqCPD+k0QitodeTr6yus057uW1tqLENUmbaEHhrQkgJ0WvLxFcoJCKcO4z6gJbOGUFR4P3ptT620Zin99mAHCm4ziZYXSovMyjfQo51DqdW4hZQnLRLV5q6mZ0e0oxBxu36+5OMTQHGXTqVFqVXSGg6U7qYv/tOXWgX7kZ9x/8QyWtCIDw9SnbRKXcF6enVcF4ry9xHqLuy/j450ftF08cQ5tK3YIK1lkvvVWIoP6kwP//QnfXBjewoR9jf4sldopxAr+4+p2+c8sZxAoZyft9N3j/SnliFBFOjnQ1qND4V3HE8fbDfH3Xnb5C4YQ/Eh3eiJTeXG+454sw3VxJhO76JPp1xq7JOBAeK6PuQb0Yde2loprSCvMm0xPdC3BfkLsdBoNKTRhtCF49+jxS/2p+CAS+mV+vqbqKlT3pejKErXgaZvtI6jp/qOSFE/dzE2jstWNsbleKvPOJ+XJC7Ew9gOwvh68Ls19Ob1HSg62J98tBryibyEpi7LptrKVFp4V3eKDQ4kfx+t0I9CqeNtX5LtdOOJ/uNemx93afx7M7YiZ/t0/Jf7qHNQCPV4cqPQKxpU7X6dBoaHULdp/6MT0jIl87eSGHpuTlXXjx2+Xiidm520g1w54nbjAjvRtB820rwpl1BMfV8OoQ4T59MB41NdH/eq5nORgnZ0to7ifitQNK5Ebm/Ts6/BloqLi92+DR4yxJgLijmhmBuKOaKYK7ZLTibjkUbpTYUq+mMb8NOOWEx85ydsPZSJwwfXY874cGx74w5MXZApvCvxQ8r42fhq4VuY1NEfkf0exscLv8Gir2fjxra+xjLo2ArcO/xWvL+nJe6c+xu2C+9odq/7AFcfewsvLspGeVU1rHJ34d1YVXWt7Lt3Q10VqmosHjmxBtNHXI/Zu5Jw/9ebcSD9EP5Z8ii65c3D/417Bn84+pve5dsw65pBmPJ5PrrP+BZ/HTiM9P3/YNW7N6KddGyWjq/GtCtH4olVtRgxeyW27E1D6s7f8cWDXXB08f0YfsM72FNlWlekMdSiproO6V/PxKeVN+DtJSsxd2pXBApxd/SYqn0Wy6mtwYH5D+C53f3x1todOHhoB379aDLa5izFtOvvx/cFYqHO20ZDdaiprLGOvwxvtqG6GB/FsntG4T9LajD6g/XYd/gwDu5Yh88f7ocoB52bClbgvhGTMGdfK/zfvD+wJyMTBzfPxXUn3seL3+Q02n+17S7Hk31HWT93LTbOy3bej+R4s884n5dErsXD2A41ldgxbxY2dHsd6/cdwu5fXsU1Yfvxyb0P4olHJ+OFwyPwycY9OLh3Ld66LgoZCx7GA/Xb9Uz/cb/NfV0a/96MrZJ9ihn+NF6+MRa7P3oG8w/UmJ5Xl4GvnnoDW1tMwqtPDUW0uEzB/K349cHOnLrWhTlVTT92+HqhaG523g5y5Yjbra2pwe65j+Izw91Yum0/Du5cjVevjcLhhdNw94f7hPVdHPdq+76SdlSwjrJ+K1DaJzyyTc+9BnuFeaiKP4Wb+a6RmD22FY80tlV3pLGuIIOyTkt3zI6vpEmttRQ7diHlS4uoais93c2PIkZ8Rkes3kicps2PdyU/XQrdvfqktExStI6mdfYn+PeihqM8wju1+1JIF38zLZN5pza9gy9FX/eV9E7tNG158mLyD+pBMzdZvvMxUMHyiZSojaUxCy2PZ1mqpt2v9hPe2bWmcV9nkvUxJrPTtGlGF/Lz60j3/++EUKqlctr6XC8K1LSgcYuPSsvEIwbXUiR0FDPkddpp84bb/mNq9tlcDiik94u01erNiZ6yF1xHcZpgunz2HmEPJXbbRipLdxE94vBdjnfbcKOaGBevobuTtBR3/TfUEHVnymnzE12Fd9IpdI9t/YvX0yNdAwhWRxpdaXfbI0Uq90tgv38o7OcuxUbFGHLQjxrzZp9ROC+5FA9zO2gp8dblVFC/nwbK++YGiteAdK1upsX5DQEw5Cyg0bEair1+kTQfeqb/eKzNVY5/78VWeV/T53xD41v7UeItSyjPYKD8pRMo0f8CuueX48bHlc7fSrfnuTnVlbncweuFs7lZQTvIlWParoZirv6U0i2CZyhYSje31FDowHfokPkQn8pxr67vK2lHJesozVWU9glPblPg9mtwY3JHDtXexBzQeKSxTVtjbijmiFZHGl2hi09GW/MJmsK7k4pT+cg4UoHQKH9UFxehXO7tlKWq/fh5dSr8et+NB66IkhZKIvpg/DUp8JHuqla5Fz/8dAABvW/FhO7BEOIo3YDIiweha/gp7P0rFael1a3U7McPy3bA0HMqZt6YJF8HofyffkmFf++7cO+QaGikxSZB6DllKgZHFOKfNdtRJC01CcOlE8ehW4B014qjx9SIxKCpd6BnkHTXSIvEa+7EiJYVOLThXxyzetvgBi+34So1MQ5KQEpCEE5smI+v/j7l8DyUekL9fxHq73v5vXjItv7hlwn1bw+r980ut7sFtftVT6Z/KO3nrsRGadnS6op5s88IFM1LrsSjXhz6je0PIUmUaBDX7VIk+WvQ4ooJuCqhoUU1sZ3QvbU/KgsLUCJuxEP9x2tt7oTXYquir2lbj8Nrr1yN2uXP4bWlS/HSc6sQdPvbeGlEjKkshfO3ur59BudUK268JrjV/jEYdNsopFgETxPbAwM7hqLyWDZc+t6L2r6vpB2VrCNQ1G+V9glPbrOZcjlpBJVh76InMK5fB7SMjUV8YjI69b0dn+6rBBn01ocz5ZRm4uDRaoQkpiC+0RFtf8S2ihH+dVFpFlILalC2+Vn0S4hCZGRk/S2uxyNYV2ZARVEJZPt+cTp2H6lEdJcewguBtMyWsfxaRHboiASZXqOJbIfkKA1KcvNQYhkITRgS2wjv46S7Vhw9poYuBu2TZcoJbol2cUKHLTqOMk+8goi83oYqYuzbFfe8+SSu8FmPGX3bIHngXXhnTQZOOxqcpYdxIF+of8u2iJGpf5TQd/yke0autrslT/Ydpf3cpdgoLFtaXTFv9hmRknnJlXiY6cLRMt78amCiC4pAqJ8PotsmwOoRn1BEh/kKrxnVqBM37LH+46U2d8ZbsVXV13RoO+ENvDy8CPPumYpF+pvw5kvXINb4mEDx/K2ib5/JOdWSO68JbvXxKLRtHSrdkWhDEBsdCKqrRo0r+6q27ytpRyXriJT0W6V9wpPbbKZcTBrLsGnmIPS+7TNktJ2A/369Gn/vy8aJE1vwXC/x7ZiCbl5biapaLfxCgq2P5hgJIXUnqiR+E02DxJFP4M333sW771re3sfHn32OWTcly2xXUFeJyjqhCL1e9twTI/FbcMKD+to6O+tooNEIN63WOhLaAIQEyYwYkaPHVNFCp5OJf00pTpbVQecfCD/X3ypY82YbuhDj8MtnYk3qAax+/SYkZi7E9BEdccHQV7DZfC6KrdoqVNVphPoHydZfX2czuF1td0ue7Dsq+rnq2LgzhhzxZp9RMS+pjocneKL/eLPNHfJibNX2NV0YEhLCUVdSAkN4Cwi5TAMl87fqvn0G51RLbr4mnJU+bo/avq+kHZWso7TfKu0TntxmM+VaVz/5Oz5ZsBMR4+di9aLncPvIPuiUFIdQlKDwlHSCsjNBcYgLJZTkZKO4UfTLkXUgB5XSPRMd/Px9oKk8iZMVNq8s5QXIKxJbUroflIDWkVqcKgrFwImTMXly49tt13ZFmLS6lZCWSBSeW5KVgRNCkbJCE9EuWofSzHQUyqxDpTnIOgVEJbdFhFv9Q8U+m+lLcLSwQrrTwHAyHeknDYhq3x4xnprgvNmGQoyTXIixNiQFw6fPw8asbGx4uT9qf/8vpn+4W/5k4qBoxAQDJUeyUWQbR5xG9qE8WH0nwRPt7uJ+yVLZz9XFxo0x5Ig3+4zKeUlVPDzBE/3Hm23uiDdjq2qfCEdXPIr7Fmhw55wX0DP1Tdz/6paGj5KVzN9q+7ZH5lQX5nIPOON93B61fV9JOypZR2m/VdonPLnNZsql9MFQkoe8Mi2CY6Mh5s1mRX8txZqsOuO5APU0vvD306Gu4jSsLmcW0RVX9IhF6cZP8fm/1gNSf2QFPlxxxCaT90d82xYIKNuH9f8el5aJDMhbuxh/HDedg2AU1g1DL09A+d/z8dmWMtMyC1RejBJ7oyasO64d0gYVm97Da6uPy4/jkIsxalgyKje/jzfW2K5TiR3z52BdaRKGjumFcGmpa1Tsc71jWC+8s8m2+gihHNvmfYw/Slph0OheiJCW2m0bpbzZhkKMR6uJsb4WtZb7rItBvyl3on9UJfLTcuTPvYu4BFf1jEHJprn4fKtN/bNXYI5t/T3R7mr3yxGl/dyV2KgZQ2r6kRf7jOJ5yZV4eIIn+o8n21xFu3k1tir6miF3CaY/tATam2bjmakP49UHO+HgW/dj9hapZCXzt+rXB0/Mqa7M5W44E31czbhX2/cVtaPzdRT3W6V9wpPbFLn7Gnw2uPTt6bI/6JFO/qSNGUgzl++kI7lp9M83j9GV3fvRgIuCKXTQe5Sql9alo/TtjfGkCb2MHluxiw79+wv9usf0taKyLc9Qr2CQX+sR9OLKHZR+JJ12/PIW3dQhmYZd14eCrb5FSVRz8F0aEi6sn3gtzV69lzKPHKRNn99LA3pfRYOS/ay+fVa15226IlJDPtG96f75f9Cew7mUd3gX/Tr3YRra/176+ZS0ooy6Iwvp5ja+pAnuQDe98SP9c+gIHTn4Ny2fNZEmf5hK4q7p85bSbe38hHUuolve+om2pmVT5t4/aeGMwRSn86OUycsotz4G5m9CNb7emsjRY2r22ViOTyJd3KsjXTr5A1q7L5OyDmyixU8OEeqkoZiRH9GhGmllI/tto/SbW95sQ1UxPrmC7r3qFnp5yZ+0KyOXcg//S0sf6UMRugS6cVGezbf1GpRumkk9gkC+LYfSs99to/Tsw8b6T+jelUaPFepvc51G9e3e+Dp7nuw7ivq5i7FRPobs9yM5XuszSuclF+Nhrx0MmR/TVWG+1O3prWR1Nbe6Q/TeoFAK6j2LzLvjif7juTZXMf69HFtF+1SXSV/d2Ip8E26gr7OlIJ1aS9M6B1JIr6fJ/KVXJfO30r7tyTlV9VxuZ8w3ahs5CtpBrhz72z1GS8fHky7lPvqt/svF6sa92r6vpB2drqMiV1HaJzy5TU+8BtuS+za02pujb0/XJ41txKRRWCExUdkld4o2zaJr2gWTTiteDNmXQhKH0MxlK+nZgbEUe6VlUIT55u/XaHiiP2mEhB0+KRYXAK2l7B8fpYGtAo0XuNRofSggqgONfe0P2vj6gEYvHkKzUtrCKdQ1TCem6qTRaCmwzUia9ctyerhbmM2FoQ10astbNL5zFPmJdRQv2qzzpaDo9jRsxgo6bHOtTltVGd/RI0PaULB4YVPhuVrhucEJvWjKNxnGziqqzlpJTwxLpjBf0zoajY78w9vTiGd+phyriUS8aOoY48VaH9vQuAM4ekzNPps72X3fLqWnrhTrbtpvrV8kdZ3wAW0rlla0YK9txAuLxim6sKg321BFjE/8TA/2iDVeLNq4zz5+FNqyF036cDuVSavIq6EjK6dT/xamGIjP1YVeSDe+s5n+evdKigzpTbP2WDemmnbPWzCaov270AybSdhTfUdRP3c5NsrHkP0xLsd7fUbRvORiPPKEdogLFNqhUdI4l4ZHhVKv57c1ShrnDIunqH6z65NGkfv9x3Ntrmb8ezO2zvephtLmjaXW/vF0zdw0i0udGOjYyimU4hdOfZ7bRCXSUufzt7K+7ck5VU0/dvh6oWRuVtAOcuXY6+Ni0rhsYlsK7fiQRdKodtyr6/siJa/DztZRnqson+88t01PvAZbk0sC1d6MSaOQC4o5oZgbWiaNGvEXgemQqfQzJSUFv/++TujXTuirUFSQhxO1IWjRKh6hvkIR+jroNTr4aIUQWKDa0zh+tBCVAfFoFRds/VV1fQWO5+biVF0I4lu1QEQAkP7eEFwyowIzt23BzC7WJwNTbQmOHslHmW8MElvHIkgYgwbxxFSZ7QJ1OH0sF/mnqqALjUXLhGgEKv7r34Tq4qPIKzwNbVgcWsRGIKDRcwm1pceQW1CMOv8oJLSMRYivbR0EBj3EPxOl0fmg0TnVjh6TKNnn/AWj0GVKOu74Yxve7Ocv7HcO8ko0iEhojfhQ+ydUy7aN+CeM9OKF6n3QKKRyvNqGCmMMPSqLClFw/DQ0YTGIj4lEoP3dtibU/0ROLk4YQpDQKgHh/kL5xnaBEAOdTAw80O4eKcPMWT93IzYKx5DDMS7HW31G0bzkQjykMdGoHcgAvV7sKMJymxN+xD8Vpidhu40azhNt75k2VzX+vRXbevb3yRhLg0YIszAeTYskQj8Q//SkRivE2fIRJfO34xh6dE6VKOrHjtpd8dzspB3kyrHXxwXit371QmqjE2Js+ZDqca+079dT9jrscB0VuYrS+c6T2/TIa7CkpMT9bzqNGTMWGRkZxi8nCf+YvqRkvAl33Uoavcbg8MWDyTNPcFP+3I43+lp+pfBs4DZkanGfYU1L05pTGXPO20mjS1+EYYwxxhhj5xdOGhljjDHGmFNNNmn0aT0At0wcgnZ+JC1hzmijemLspOG4yPoPVpw13IZMLe4zrClpanMqY2dbEz2nkTHGGGOMqXEGzmkU39Gb3tXze3vGGGOMMWadE4oHFvmcRsYYY4wxpgAnjYwxxhhjzClOGhljjDHGmFOcNDLGGGOMMac4aWSMMcaaHILBIPf1VHvLGfO+Zps0VqSuwOsvzMHveXXSEkf0SJt3M3p0HYV399RKy9SWwZo7T/SZ5shb/Vyu3LxFk3Bxx6vw0pZyaQmPM29oDjGV6wvnCu/GvxJpSx7G4HbRCAmMQM+nN6PCzvITLtbjzPWfc2ceZSbNNGmsxP6FL+HZ55/GrB+PCN3SOc3po0hNP4Zy8UJDRurLYM2ZJ/pMc+Stfi5frqauBLlpuSg28DjznuYR08Z94Vzh3fgXrXsCY277BPk9p+HjL17HrZ1D7Cz3xUGX6nFm+8+5MY8yM23DhXia0+HuQPSYtgArVq7E3Ekp0ElL1bFTRm06lj0+BkMmf41sV0PiiTKYh3miz3iJV/uLt/ZbablNOO5Niao+wDE9u7wZ/yJsWbgSaS1uwdtzn8Vtt9yNh2/phiDZ5Zeir0v14P5zRjTrPMCywuLvwk1a1Gw/ntZGdsbw0QOR5Mafd5Itw1CMXat/wc7CammBCzxRBvM4T/QZr/Byf/HWfistt8nGvSlR2Qc4pmeX1+JvOInDh4vg2+ICtAmTlonsLHe1Htx/zoBzNA/wSNJI1cU4mpmKg+nZKDzdcN4CGepQV2eQOYZJMOiFxyxP5iW9sG4dzIvqygtxJPUQMvJLUdO4gEbrWzOg4mQ20g6lI7eoSrgnblGGTRlifWtrhPsaQCM9VltbC73Nk6mmFAWZh3AwIx/FVdYH95WWIdao6lQO0g4eQlZhubKPCKzqS6gpycfhQ6nIPmnaR3sMFSeRk34AB9JycKLCzpZcLLueTSydtp/Bcn09Kk8dQ2FZTaN2clZ3EvuRXq6PCaQ6CQ9b3TfX0ZrCPlPPSfspjKfy/uKcvrIIRw8fQmpWAUqqLbYit99WywxC/HOQkZGDU1VWtUNN6VGh3odwRK4fOIynBYfrCds2xj0NuaekbRj7ht5qfVVzST0XxpjEXixdn9M83AfkYqpwe0p4ZE6XY1Nvp/OExNGc65wX+phc/J1wOg8LddLXz2VCH6gW6yNsQ29nubjAST3staOj57kba4/OoxK7c1s9J+U4eL1pMmO6uUhKakdtk5KoTdu2lNhGuCW2ocGDh4h/j9q50t30xX/6UqtgP/Lz9yd/P1/y9WtBIz48SHVUSr892IGC20yi5YXS+mblG+jRzqHUatxCypMW5X01luIDO9PDP2+n7x7pTy1DgijQz4e0Gh8K7ziePtheKq1pkrtgDMWHdKMnNpVLS0wq0xbTA31bkL8GpNFoSKMNoQvHv0eLX+xPwQGX0it7aqU1bcsoo/UPd6RAHx/SCc+FVke+vsL++Len+9aatm04voneurUXJYQEkL9xf/2Ex1vQgEdXUla1uIbzMkS1uavp2RHtKER8TIiZj08AxV06lRalVklryMsVYhQX2Imm/bCR5k25hGKCA8nfR2vcxw4T59OBSmlFSV3Benp1XBeK8vchH1+hrj460vlF08UT59C2YoO0lonasm2pbj9x/SBh/Z/+pA9ubE8hOi0FX/YK7TTGUWndC2j57SkUFHMNzcvSS8vMDHTki9EU538B3fPLSeMST/QZkZL2UxZPZf3FqdO76NMplxr7ZWCAGCsf8o3oQy9tNTWa3H4b4y+014PfraE3r+9A0cH+5KPVkE/kJTR1WTbVVqbSwru6U2x9vUOp421fkmUXlSs378tRFKXrQNM3WmzLbtyX0EMDWlKA0PY+vsJ4CginDuM+oCWzhlBUeD96rT7u6uYSkatjzHEs1dXDm33AXpu6M4aNPDmny/QFtfOE8znXMW/1MXt9Wo6yuayW9rwxkKIDhP300Qj9wJcCAgMpIOwyevCRATLLe9Mru2rs18NhO8rX3/1Ye34edTa3iZTOx/KvN01nTHtKcXGx27fBgwcbc0ExJxRzQzFHFHPFdu2SyfUjjeXbMOuaQZjyeT66z/gWfx04jPT9/2DVuzeinblUIUuvqq61ysDNDHVVqKqxeMRQi5raGhyY/wCe290fb63dgYOHduDXjyajbc5STLv+fnxf0JCma6gONZU1sPw+FhWswH0jJmHOvlb4v3l/YE9GJg5unovrTryPF7/JsVpXZF2GH1LGz8ZXC9/CpI7+iOz3MD5e+A0WfT0bN7b1Na6hP7YBP+2IxcR3fsLWQ5k4fHA95owPx7Y37sDUBZnCfjovAyfWYPqI6zF7VxLu/3ozDqQfwj9LHkW3vHn4v3HP4A8Hf2tcI8SotqYGu+c+is8Md2Pptv04uHM1Xr02CocXTsPdH+6r30c6vhrTrhyJJ1bVYsTsldiyNw2pO3/HFw92wdHF92P4De9gT5W0skBN2bLstN9ae+0nri+8Y07/eiY+rbwBby9ZiblTuyJQWEV53eMxaNxAxJzahMVrjlj3M0MW1nyzESXtx+DWAVHGRZ7oM0rbT1k8FfQXp45i2T2j8J8lNRj9wXrsO3wYB3esw+cP90OUMF+J5PbbGP+aSuyYNwsbur2O9fsOYfcvr+KasP345N4H8cSjk/HC4RH4ZOMeHNy7Fm9dF4WMBQ/jAWM/l8qQKVeObNyPrcC9w2/F+3ta4s65v2G78G5997oPcPWxt/DiomyUV1Vbl6tmLnF5jDmPpZp6eLMP2GtTt8awp+d0OWK/UzHPO59z7fNmH1Pa95XPZVrEDnoEH375Cab1D0PwJf+Ht7/4El9+NgNDBz8su3xwhJ16KGhHuee5FWuvzKMKxqOK+dje601TGdPNhmtHGqtp96v9hGy9NY37OlN4jyRHyODvSyFd/M20TCaDn97Bl6Kv+8riXem1FCn0vZDeL9JWqzdNespecB3FaYLp8tl7hC2bGNfXXUSP1L9TKqfNT3QVsv4Uume16chSveL19EjXAILNu53GZQiqttLT3fwoYsRndMT6YJzwjjGDsk5Ld8yOr6RJrbUUO3Yh5UuL7JdxmrY8eTH5B/WgmZss33EYqGD5RErUxtKYheaINGaKkYZirv6U0i2CbihYSje31FDowHfokPg2UtjOxhldyM+vI93/vxNC6ZbKaetzvShQ04LGLT4qLVNTtjyX2g86ihnyOu20OgKisu4lv9EDF/pSxFUfUppF/WoPvkODwoLospd3kPn9ZuP2VttnlLefqng66HNOFa+hu5O0FHf9N9TQmtYa77e5flpKvHU5FdRv00B539xA8cK7Y12rm2lxfkNlDDkLaHSshmKvX1Tfz+XLlTm61Gi907T58a7kp0uhu23jXrSOpnX2J/j3soi7mrnEjTHmNJauzGne6QP229TVMeyNOd1OX1AxTyiecxvxZh+Tj39j6udh0qfR+4PDKKj3LNpt2Qh2ljeuh5J2lK+/67H20jzqdDyqnY/lXm+azpj2FLkjh2pvnj/SWLMfPyzbAUPPqZh5YxJ8pMXui8SgqXegZ5B010iLxGvuxIiWFTi04V8ca3gTaq1qP35ZnQrfy+/FQ1eYjizVC78M469pD3dzfF18MtqaTxwW3nFUnMpHxpEKhEb5o7q4COWO3oqJKvfih58OIKD3rZjQPRhC+0o3Yc8vHoSu4aew969UnJZWlxeDQbeNQopF0DWxPTCwYygqj2XDeM6tsJ1Vv6TCv/dduHdINDSm1SRB6DllqvAutRD/rNmOImmpiYKyHVLbfmG4dOI4dAuQ7orU1j2sD24Z0wEVfy/Gzxnma47V4MCKb7FNczkm39wV/tLSRtT2GdXt5248FQhKQEpCEE5smI+v/j6l6rw9IA79xvaHkCRKNIjrdimS/DVoccUEXJXQEH1NbCd0b+2PysIClKg9zcmWEPefhbj79b4bD9jGPaKPEPcU1+cUd8aYW7G05wz0ASsubs9rc7oc5fOEy3OuN/uYUi7Pw25wox3dibVX5lFn41H1WJd5vXHJmR7TTYudpFEasfYUp2P3kUpEd+khvMBIyzxBF4P2yUIeL92tF9wS7eKEjlt0HGX2ZvLSwziQX42Qlm0R0yg79EdUQhT8pHsuozLsXfQExvXrgJaxsYhPTEanvrfj032VIIPeWdSEOmYhtaAGZZufRT+hPpGRkfW3uB6PYF2ZARVFJXDY53RRaNs6VLoj0YYgNjoQVFeNGjE+xu3UIrJDRyTIzBqayHZIjtKgJDcPJZaVVlK2I2rbTxOGxDY266uuuzD5TpyA7vrtWPZTGoxpY9VerFi2F2HD/g9jkh1cUEJtn1Hbfu7GUwnfrrjnzSdxhc96zOjbBskD78I7azJw2tkbGJEuHC3jrb8+qQuKQKifD6LbJsDqEZ9QRIf5Cq8l1ahz2tGdKM3EwaNC3BNTEC8T99hWMfYTfWfcGWPuxNKeM9EHLLm6PW/N6XLUzBOuzrne7GNKuToPu8OddnQ51l6aR52NR7VjXe71xhVnekyfVdatLt5z7UhjXSUqhVdn0usdnuegnhY6nUyT1pTiZFkddP6B8LNX49oqVNVp4BcSJHNEkaCvU5DUOVSGTTMHofdtnyGj7QT89+vV+HtfNk6c2ILneolvmRV0RRK/iaVB4sgn8OZ77+Lddy1v7+Pjzz7HrJuS3T4iCvHbYELD6Gvr7LSPBhqNcNNq3R9AVlS2nzYAIUE2s6kLdffrdANu7a3Dzu9X4WAtULFzKZbujcKIycPQ0tEOqu0zZ6r9VAq/fCbWpB7A6tdvQmLmQkwf0REXDH0Fmx2cH3tW1VaiqlYrxD1YNu5uDVQ326jZxdJTvDany1E6T7gx53qzjyl1NuZhl9vRnVh7bx51OB7VjnW51xummmtJY0hLJEZqUZKVgRPmTwQb0cHP3weaypM4WWEzQssLkFck9mzpvpm+BEcLTX8wyZLhZDrSTxoQ1b49YuzVOCgaMcFAyZFsFDWaEE4j+1AeLL73od7J3/HJgp2IGD8Xqxc9h9tH9kGnpDiEogSFp2qklZwISkBrIW6nikIxcOJkTJ7c+HbbtV1heXkul4QmIilaJ7zZTkehTPtQaQ6yTgFRyW0R4bHZSuBO+5m5Unef9rh2Qh/4/LsUK/efxL/LfkRm8jjcMcjmoxJbavvMmWo/F2hDUjB8+jxszMrGhpf7o/b3/2L6h7udnqh/VgTFIS6UUJKTjeJGr2zlyDqQg0rpnomKucQDbWQ/li7Mac2Ft+Z0OUrnCXfmXG/2MaXOxjysqB1luBVr786jdsejR+bjc3hMe4lrSWNYd1w7pA0qNr2H11YftxNTf8S3bYGAsn1Y/+9xaZnIgLy1i/HHcdP5B9aOYb3wDifb6vBuObbN+xh/lLTCoNG9ECEtbSTiElzVMwYlm+bi863WE5I+ewXmrLD5dq09Gl/4++lQV3EalpesM5TkIa9Mi+DYaFieilP011Ksyaqz3hc7ZSCsG4ZenoDyv+fjsy1l0sIGVF6MEk+8yodcjNHDklG5+X28sca2fSqxY/4crCtNwtAxvRAuLfUMN9rPzKW6a9H26kkYHLIXPyxdjCWrctDxlom4zPTXt+xT22e81X72+ougouAQ9u7dL/Q9aYEtfS1qLeOti0G/KXeif1Ql8tNy5M/dO9siuuKKHrEo3fgpPv/XJu5HVuDDRmNVxVziThs5jaUrc5pCDvrAGeG1OV2OsnlC1Zxry5t9TKmzMQ8rasfG3Iu1l+ZRZ+PRI/PxOTymvcS1pBFRGPbMyxjXMgfzbx6AW978CVtTs4V3FP/g+9m34vaP0oSQ65A0/HpcGpaP76bdiVfX7ENW9iFs/uIB3PJuMTq084NGa/P2yqc14rL/ixvvnIPf9mfhyMHNWDJzFEbN2oHg4TMxc3i0tKIMTSuMfuwu9NBsx+yxY/Dc8n+RkZOJnavfxm1j3gT16219jpY9fvG4ICkM5TsW4bOfdiN1+2qs3VsObVxndE/0QcaiZzHr+13IzkvH1m9nYNzjuxCXEmz8mKGenTLEE2hHzHgEgwN3460xQ/HA539ib2Ye8jN3Y+2n0zF8xFPY7JFX+XAMfvIVTEjMxfybBmLi26uwLV14V7tvAxY9fjVGvrATCRNn4+krnaZw6rjTfvVcq7um5XBMGdUCWeu+x5bSXrjtpm7CdOCE6j7jpfaz219OYu2Tw3D5bYuRb+9TlZKfMW3EBLyydAN2HxYm/sztWPbmB/ijuAV6D+3uPEk/GzStcd3j96CnZhtmX38DXvphJzKyM4xxnzj8BZT3ucwm7mrmEjfayGksXZjTlLLbB84UL83pchTOE6rmXFte7WNKnY15WEk7NuZerL00jzodj56Yj8/lMe0l4teoG19yZ7CQXDtXlfEdPTKkDQWLF7fUaEir86XghF405ZsMMl1quYrSFk6hrmE6MVUX1tFSYJuRNOuX5fRwtzCbC8GaLgFw37dL6akrxTI1pjL9IqnrhA9oW7G0okS8OGlco4ua1tCRldOpfwt/EprZ+Hxd6IV04zub6a93r6TIkN40a0+NtK69MojK/n6NhieayoBPSv0FOYs2zaJr2gWTTiteuNSXQhKH0MxlK+nZgbEUe+V7lGpxfWl7ZYiXAzi15S0a3zmK/MRyxIugCnELim5Pw2asoMMOrj2c95VQ38DO9JjFJSxMjtGyiW0ptOND9JvFlQeqs1bSE8OSKczX1D4ajY78w9vTiGd+ppyGMBipLduW6vYTtidebPWxDbbbM1FTd7PiX++nDoF+1OrGhZQrc4kDT/QZpe2nNp6y/aV8Mz3eNZx6PPMPVUjrNXLiZ3qwR6zx4sXGePv4UWjLXjTpw+1UJq0it9/26mfInEvDo0Kp1/Pb6i9VZFR3iOYMi6eofrPJfOUM2XIXjKZo/y40w6Jc+bjXUvaPj9LAVoHGC+BqtD4UENWBxr72B218fQAFW10ORaR8LnF5jCmIpao5zRN9wA41bap0DIs8OqfL9AW184SaObcx7/Ux+T4tT9Vcpk+j94fGUdzA1xtfckdmub16OGtHuee5F2svzKOKxqOyse749aZpjGlPkbuEjtpbwyV32lhdciepXTJpxF9I2B9hW8JNDBkhJSUZv//+u3BHCUJ18VHkFZ6GNiwOLWIjEGDzhVWqLcHRI/ko841BYutYBAltI/5pJINGBx8pi89fMApdpqTjjj+24c1+/jh9LAd5JRpEJLRGfKjMYRbxT/PoxYut+6DRGwF9BU7k5OKEIQQJrRIQ7i+sIP4ZIeEtllana1jfQRlUexrHjxaiMiAereKCGy5doK9CUUEeTtSGoEWreIT6isXUQW+xL2Z2yzCqE/YxF/mnqqALjUXLhGgEOvvL8VJ9NUJ9bc8jF7/dphe6pk5ne1I1obb0GHILilHnH4WElrEI8bV5ssilshuobj9je8hvr4HCuteTTrrWNm4LI0/0mXpO2s+FeNr2F03au7iyz3xcvmoLZvWx/NDIlh6VRYUoOH4amrAYxMdEItAy5HL7ba9+ZDD+yTJoheU2n0OIfxpLT0JszU+QK1euXZ3E/XhuLk7VhSC+VQtEBADp7w3BJTMqMHPbFszsYt13lMwlDVwYY85iKVFUDw/0AZlNm6hpU4GSMdzAM3O6XF9QPU+IVMy5srzRxxz1aVnK5zLjvkHYlk0jyi53WA8H7WjveR6ItUfnUYXj0Wk5cvOSjbM+pj2opMS9b+6NGTMGGRmHIe6IkIibbqY70LQVkkYxUTQmjeJ/QuIoJo3rFSeNnmGeTKb8uR1v9A2UlrLmgtvP8woWj8dlL7fDt3+/ir6OcsZzisHhCzpr3prGPMF9jJ3b3E0arzMmjRmNE0bh5uI5jYwx7ypHbmkb3DLtZlx83iSMjDHGmjJOGhlrkoLR66438Oqd3W1OImeMMcbOjiaTNGqjemLspOG4iF8hmyVuP+YpPq0H4JaJQ9DOTzzJmp1Lmso8wX2MMdc0mXMaGWOMMcaYe/icRsYYY4wxdlZx0sgYY4wxxpzipJExxhhjjDllTBqtTwXmE4MZY4wxxs5rYjoo3CyzQj7SyBhjjDHGnOKkkTHGzgsEg4E/SWKMua5ZJY15iybh4o5X4aUt5dIS+WUVqSvw+gtz8HtenbTEMbXrnw3eqqOr5ap7nh5p825Gj66j8O6eWmlZ0yLXj5QyPXcoXv67QlrCvMsz/cmdNm9eKpG25GEMbheNkMAI9Hx6M5pNTyUD6mprUSt3qzO4fDIVj1nPOtdeD5h9zSpp1NSVIDctF8WGhj8H3nhZJfYvfAnPPv80Zv14ROiezqhd/2zwVh1dLVf98zSnjyI1/RjKNQ1t15TI9S2l6p+rb5r7di7yRH9yp82bk6J1T2DMbZ8gv+c0fPzF67i1c4j0SNNXu3sW+kYGIyQkpNEtovMD+NXFy9HxmPWkc+/1gNlnvLi3eGFv4wW+xf+EnykpKXxxb8YYY4yxZsZjF/cW/xMTe+FmvtA3n9PIGGOMMcacMiaN9QeIjSeI8OFixhhjjLHzmkw6aP23p40fUfPfnmaMMcYYOx8NHjKk4W9Pi5kjfzzNGGOMMcbU4KSRMcYYY4w5xUkjY4wxxhhzipNGxhhjjDHmFCeNjDHGGGPMKU4aGWOMMcaYU8ak0frvd7r61zwZY4wxxti5io80MsYYY4wxpzhpZIwxxhhjTnHSyBhjjDHGnOKkkTHGGGOMOcVJI2OMMcYYc4qTRsYYY4wx5hQnjYwxxhhjrIF49cVGV2AkThoZY4wxxphznDQyxhhjjDGnOGlkjDHGGGNOcdLIGGOMMcac4qSRMcYYY4w5xUkjY4wxxhhzipNGxhhjjDHmlJA0mi7EU385nkbX5WGMMcYYY+cb25SQjzQyxhhjjDGnOGlkjDHGGGNOcdLIGGOMMcac4qSRMcYYY4w5xUkjY4wxxhhzipNGxhhjjDHmlJQ08nV2GGOMMcaYLTFHFG7C/3ykkTHGGGOMOcVJI2OMMcYYc4qTRsYYY4wx5hQnjYwxxhhjzClOGhljjDHGmFOcNDLGGGOMMac4aWSMMcYYY05x0sgYY4wxxpzipJExxhhjjDnFSSNjjDHGGHOKk0bGGGOMMeaUpm1SEgkg/A/xH/H3lPYpWP/776Y1GGOsCaupqUFOTg4qKyuh1+ulpU1DeHg4WrZsCT8/P2kJY4w1bYOHDEFGegY0Go2QJWrE/42/G//jpJEx1lyJCWNqaipiYmKMN6226Xx4YjAYcOrUKRQWFuLCCy/kxJEx1iw4Shr542nGWLOVn5+P+Ph4xMXFNamEUSTWR0xko6OjjUdCGWOsueOkkTHWbJWUlCAiIkK61zSJiaP40TljjDUbGumnkXRH+MFJI2OsWdPpdNJvTZNYv6Z2riVjjLmCk0bGGGOMMeYUJ42MMcYYY8wpThoZY+cMOp2GNZ+8gIen3o17H5uNb3YUSY/YkTsXQ5Nvxcpi6b4LKPsL3HjZFCwvlBYwxtg5ipNGxti54dQa3NurLx75XzkSu12MtrQLP23IgUF62Fs04Rfj+juuRccQ8V4uvn9oLB5bdcr4GGOMnUs4aWSMnRNKNi/CqsD7sWjxa5h+7314/I1vsPDBbtDWVaG8sq4heTTer7VJJg2oOJaJjPwy1ElLYKhBRXkV6oSfJXlHkF8mPVJdhJzMbJysEi9uKwjtjDG3XY0LAgmkr0Hu7r04WnkaZcI2pTUYY+ycYJE08vTGGGu+ghLbIy7re8xfexS10jJR7Y7ncVmfF7Fb+gJz3Z5X0KfnM/jXnB1qSrD6wT7ocdVojOyZhAvGfIKDYgH5X+C6bqMx+Ya+GDBsELq07o6HPp6N0d37YMSI3miXPAqfHRZSz/zPMbrr/2FVcRrev/pK/HdHPn56sD+6jHoPqTytMsaaI7m5S1jGRxoZY+cE34sfx7JP++CPWy5Au8HTsfhgufSIwFHyVrgVBVctw949e5Ca8SNuTHsJz608bnrseCbC7/8Nu/elY8NTYZj/1J8YtWof9h3aic/67cPn36c2FK25EA+u+R1PdW+J0R/vwJG109HB6lpnjDHWvHHSyBg7R/gh6caPsT1nO97vsxPTL+2Ou1edkB5zIKIfbhrZBj7i70Hdce2wSBzel2P6mDqqJ67sHi784oPWnS5AXKfhuKKduGY0UjrHoaaotOHjbAs+Pr7Sb4wxdu7gpJExdk7RhFyIsbPXYuMbSVj50nykigvJAIN0SJAMeuvzGX384W/MGEV1qCyvgc7P1zQ5anTQmWdJ8e+v+vrAfClxjZYPIzLGzi+cNDLGzgnH//we6/KqpI+L61BdrYdPYBAColog8sQO7DwqporVOPC/9ci2/Lj65F/4cfMJ4/MMx9dh0WpCn/4pLk6OWvjoDKiorJbuM8bYuYOTRsbYOYGOLcXkC2MQ06odklq2Qv+3ffHQa7cjJXk8HrrqIB7p2QFdu/XEA3ti0M7yIGFcEorfGYhOXTuh3UV34+DNH+PZAUHSg2oloO/QeKz9T190vuYdHLJMThljrJnTtE1KIgHEm/hWW/yZ0j4F63//XVqFMcaapl27dqFr167SPcBQXYyC/JOoDYpBi9hw+Ne/La5Daf4RnPRJQNsoLSprdQgM9IVWX42KKsAvECjNy0d5SEu0jvQ3/Xl+42MEv6AA+IgL6ipRXueH4ADTB9SGmnJUIhDBPnWoFNbzDfQ3rQc9KgrzcMqvBVpH+BnX3bNnDy6++GLj74wx1pQNHjIEGekZ0GiECU24iT+Nvwr/8ZFGxtg5Q+sfgZbtUtA23jJhFPkgrGUK2sUFQesTgGAxYRQX6/wRFCwke1p/RCW2Q6I5YRQZH5MSRpGPkCBKCaNI6xeMYD+hFK0fAoPMCaNIh6C4NvUJI2OMnSssplVpxquf+BhjrGnT6XTQ66ULMDZRTb1+jDHmWMN5NnykkTHWbAUGBuLECQWX1TmLioqKEB4uXraHMcaaN04aGWPNVmJiIk6ePGlMHJvaET2xPseOHUNhYSFatmwpLWWMsebL4oswwj3xp/BfSgp/EYYx1jzU1NTg0KFDxgTN+IW+JsLHxwdRUVHo2LEj/Pz4/EbGWPPQ+Isw4g/xazDCf5w0MsYYY4wxkaOkkT+eZowxxhhjTnHSyBhjjDHGnOKkkTHGGGOMNbBz+UVOGhljjDHGmFOcNDLGGGOMMac4aWSMMcYYY05x0sgYY4wxxpzipJExxhhjjDnFSSNjjDHGGHOKk0bGGGOMMdaI6co7Ddff4aSRMcYYY4w5xUkjY4wxxhhzipNGxhhjjDHmFCeNjDHGGGPMKU4aGWOMMcaYU5w0MsYYY4wxpzhpZIwxxhhjTglJY8P1dxhjjDHGGLNmyhX5SCNjjDHGGHOKk0bGGGOMMeYUJ42MMcYYY8wpThoZY4wxxphTnDQyxhhjjDGnOGlkjDHGGGNOSUmjxvRlar76DmOMMcYYk9SnhsIvfKSRMcYYY4w5xUkjY4wxxhhzipNGxhhjjDHmlEzSKJ3fyBhjjDHGzk9iMmiTEBqTRuMyzhQZY4wxxs5rplxRLinUWBxpJNMPcbU6vR7Hjx83LWCMMcYYY+c8Mfer+/92ziW5jRsIw5AUPxaxHC9UpaVFPUp3cg6TlXOB+AZWjuHcgyzttNAiXMThQiSdUvo1oyGpgazuItrg9KfRNIAm2A1gDPxF2v72n9Q2YdHIsrK5pfndPI0nEyoHQRAEQRAEuw9qv7v5ndTk00YwUkr7TQFpyvPFPE3GY6kFQRAEQRAEuw5qv8V8QWXWhKIMxey3SrHjmP07S1dXf6abmxtuC4IgCIIgCHYW1Hyo/WazWSsJGa7gfZ+NeMUsl8t0e3ub/vj0iRuCIAiCIAiCnQU1H2o/1IAEaEKRhQBXDn559+43qpLnwY3faU//nqbr6+t0eXmZDg8PxRMEQRAEQRDsAvgJ48ePv6cvf31J0+mU2vZQFMIvGRKMUn5/MrpP93DhD/4L6m4ZePv2MB0fH6dfP3xI5+fn6eLiIh0dHbEzCIIgCIIgqAr8V9Lj8ThNJpP0+eqKPmH8+s9Xdq4IRRaL1IJNJyAaG5F4z6pxQzy+ePFTevPzm/Ty1cv0+tXrdHCwDx56aYasM4u6pz6kgfJB6xqmS7bFGcijBwxjPX2gnXn3cRjmQGYWUI50MGtSPioLrtJkgoILvfjf6sznd2m+WNDfYVwuv7EopBeIQGzLXKeWkxGIRjwHWpEIFbykzlennW+t7YP8WpRdPWJaUOerzlU/SIfpqWtNamMgwwyegA6CoA86NEtjCKnvWs84PdaEvqotjSFkdo7ARX4Rglxmy19JN21d/0P5EdGI74oWCnStljdsD/ymhTGEzI0li8swB5CrBYeQFlzmKAicoENoCCiHaZsdl6AqXJ4D9fQYcv3BYtL70tW1cO+2Yb1pxz7klPLJ6BTOLDy24ODCa6MMdNvwhxvp6kN66lB2HUpMLaZctTiEtAStLN1gS3j8WeEtOejFYXpsIZW9K3oMXJ5ZQ0h1vrsUk1zwCrD0utZ227hMNSxTUfwjEI24QZIQFHHYLfP1YNc/deyD/KUxhFTn6zLMAeRqwSGkJahLukOhpsmlnXn38RmmQ1SXkIWDGsIVzxVRhjTl6hEzh4jAja+iycf17NfULBphb+U7C0ayUKBLLNTZhbbxZeA3UiGRyqIMacq18DBrytWCy/NjobJ09QxmoIWBzXwIVDZMOmRLUzhkbWNU51tZzFxn8sCN8loRhKttVMMyFTtto1MQjbSXw1GLVsThioiUNrZQoottH9JDh7KrKaYW0zAL5+syPXWtiRaXcQbbw2M5aVMO+pDjqx4c0i0+R7WNUdnV5dljlaYi2xOcNB68KIaMrisMsdxpo5q0gWg8g/OOjzxRj2KpGSt8INL1iO0j43qK7PvmMMTUos7VQLNORXEIqcVjTWqaHy9c1mUAyPYe5HCYIpd1qehRYMFSFvWamFLVdd5WSBaA61ZmZk0kctOaj0Qj8D1CkbWK1J8QLtRPi7KrR0wLpnw1mKbHYYK0DGEtrVSWbrAl+FyoAjm66sEh3eJzNIQxIiKgNKh7GoaZnSNwkZ9eAqVOna30FpFIrTJ+EpCnIBrp/CChiIbucsEPN5KvtZ32bdBEeTaGdNQxLRQOWdsYXfLVUlGqQ6KmZ0i26mAbVDS1pueg8DhdnlmXkOXXZGtzC2/Lnx7K+1NZLProBY1d9VHr6dk56ETcWGF7pf11zcKNqz22l7w3i7LrUxllMXTVos63plw9iPkJrHgsJ23KwTaQo68sFa1nTfNT21qq8zUNs78zebpicN1ygSy1cgMYfg2JRjrycJNsheBaPWP76Pd8B5n33RYyorIoQ+ozNYzRYXq0uKylB4MZ5kAG6oAcFWVxCOnBMOZWH1Dd0zDGmtZka7mK+HuWhV8ppr0z/KQRayQEoUQX/DT7NLWjoXvrlytD3pujjf1s9DEtXbXwzBbEZXrqWhMPij8HQVAhcoTVg0O6xeeotjHWlK8p1/7O5IEb5fWIQGzM4/699D8X6N38uEbangAAAABJRU5ErkJggg==;" vertex="1" parent="1">
          <mxGeometry x="1325" y="220" width="653" height="359" as="geometry" />
        </mxCell>
      </root>
    </mxGraphModel>
  </diagram>
</mxfile>
